<svg id="Слой_1" data-name="Слой 1" xmlns="http://www.w3.org/2000/svg" viewBox="0 0 272.1 163"><defs><style>.cls-1{fill:#f6a200;}.cls-2{fill:#ee7203;}</style></defs><title>ico</title><path class="cls-1" d="M120,2.6a238.43,238.43,0,0,1,29.3,1c2.5.3,5.1.5,7.6,1,8.7,1.8,17.4,3.6,26.1,5.6,2.8.7,5.7,1.2,8.5,2a3.74,3.74,0,0,1,2.8,2.2,22.78,22.78,0,0,1,1,5.2c.8,5.2,1.3,10.4,2,15.6,1.2,1,1.2,2.7,1.3,4.1-.1,0-.3.2-.4.2.1,1.2-.5,2.3-.4,3.4l.3,8.7c-.7.5-1.4.9-2.1,1.4-.1-1.6-.2-3.5-.3-5.8-.2-3.2-.4-7.2-.7-11.9h-.8c.3,4.7.5,8.7.7,11.9q.15,3.75.3,6.3c-6.2,4.1-11.9,8.1-17,12-6.3.9-11.5,1.7-15.6,2.2-6.6.9-10.2,1.2-10.8,1.1l-.2.7c.7.2,4.4-.1,11.1-1,3.8-.5,8.5-1.2,14.3-2q-22.8,17.7-29.9,32.6a38.05,38.05,0,0,0-3.5,16c-3.4.9-9.8,2.8-11.3,3.5-.1,0-.4.2-.5.1a21.39,21.39,0,0,0-.6,2.7c-.2.6.3,1.1.4,1.7.1.3.1.5.2.8l.3.3a26.72,26.72,0,0,1,2.6-.9l9.1-3.2c0-.1.3-.3.4-.4h0v.2h0c.2,1,.5,1.9.8,2.9-4.1,1.5-8.2,2.9-12.3,4.4a46.08,46.08,0,0,1-.2,5.2,18.57,18.57,0,0,1-.6,3.4,32.86,32.86,0,0,1-3.7,9.1,14.68,14.68,0,0,1-5.2,5.3c-.7.4-1.5.5-2.2.9-4.7,2.8-10.6,2.9-15.7,1.1A24,24,0,0,1,93.4,140c-2.9.3-5.9.2-8.8.3-5.4.1-10.7.2-16.1,0-1.7-.1-3.5-.1-5.2-.1-6.2-.6-12.4-1-18.5-1.5a12.8,12.8,0,0,1-7.3,4.5c-5.3,1.4-8.9,1-13.9-.9a20.58,20.58,0,0,1-7.8-5.2,10.23,10.23,0,0,1-1.4-2.2,7.46,7.46,0,0,1-3.1-1.5,54.36,54.36,0,0,1-4.8-4.8A6.53,6.53,0,0,1,5.2,127a32.38,32.38,0,0,1-1.6-5.3c-1.7-6-3.3-11.9,2-16.7a53,53,0,0,1-.2-6.9,13.52,13.52,0,0,1,.4-2.9,15.87,15.87,0,0,0,.7-2c.2-.7,0-1.6.2-2.3.2-3.7,2-7.1,5.3-12.5l.9-1.2a33,33,0,0,1,5.2-4.7c1.7-1.3,3.3-2.5,5.1-3.7l.1-.1v-.1a52.36,52.36,0,0,1-.5-6.2c0-1.2.6-3.1,1.5-3.7a2.09,2.09,0,0,1,.6-.4v-1c-.1-9.5,0-19.1-.1-28.6,0-.1-.1,0-.1-.1V28H25v.6l.1-.4.2,29.6c.1,0,.3.4.5.4h.4c.4,0,.8.1,1.1.1h.2c1.3.3,1.7,1,1.5,3.3.4-.5.8-1.1,1.2-1.7.5-.8,1.1-1.5,1.6-2.3,2.8-4,5.6-8.1,8.5-12,1.9-2.7,3.8-5.3,5.8-8,1.5-2.1,3.1-4.1,4.7-6.2l3-3.9c3.4-4.1,6.8-8.2,10.5-12.1A31.6,31.6,0,0,1,74.4,8.2a11.47,11.47,0,0,1,4.5-1.1h1.3A101.16,101.16,0,0,1,92.4,4.7,213.66,213.66,0,0,1,120,2.6ZM42.8,98c-2.4-2.6-4.9-2-7.2-1.4A4.65,4.65,0,0,0,33.2,98a1,1,0,0,0-.2,1.3c.5.7,2,1.4,4.8,1.7h0c1,.1,6-1.1,5-3Zm-10.3,2.6a3.39,3.39,0,0,1-.6-.6,2,2,0,0,1,.2-2.7l-12.7-.6a10.31,10.31,0,0,0-2,.2,1.93,1.93,0,0,0-.9.5l-.7,1.4V99c-.1.1-.2.2-.2.3a.44.44,0,0,0,.3.1,4.92,4.92,0,0,0,2,.3h0c5.3.2,10.2.6,14.6.9Zm31.4,5.7a11.6,11.6,0,0,0-1.6-.3h0c-5.8-.3-11.2-.5-16.6-.7-9.6-.4-18.9-.7-29.4-1.7a1.44,1.44,0,0,0-.9.2v.3a1.42,1.42,0,0,0,.2.6c.5.8,1.3,1.7,1.8,1.7h0c6.2.6,14.4,1.3,22.7,1.8,6.5.4,13.1.7,18.6.7h.2c2.5.1,3.8.1,4.5-1.3v-.1l.1-.1a2.31,2.31,0,0,0,.5-.7v-.2c.2-.1.1-.2-.1-.2Zm-1.5-1.6h0c-5.7-.3-11.2-.5-16.6-.7-9.6-.4-18.9-.7-29.3-1.7h0a2.49,2.49,0,0,0-2,.7,1.39,1.39,0,0,0-.2,1.1,7.6,7.6,0,0,0,.4,1.1,5.06,5.06,0,0,0,2.9,2.4h0c6.2.6,14.5,1.3,22.8,1.8,6.5.4,13.1.7,18.7.7h.2c3,.1,4.6.1,5.6-2a4.89,4.89,0,0,0,.7-1.1,2.44,2.44,0,0,0,0-1.2,2.36,2.36,0,0,0-.9-.8c-.8-.1-1.4-.2-2.3-.3ZM19.1,92.8a11.6,11.6,0,0,0,1.6.3h0l6.2.4h0c1.6.2,7,.4,16.8.7,4.9.2,10.8.4,17.9.7.2-.1.3-.3.4-.4a.64.64,0,0,0,0-.6,1.56,1.56,0,0,0-.6-.8,4.35,4.35,0,0,0-1.9-1c-5.5-.6-11.2-1-17.1-1.3s-12-.4-18.3-.4h-.2c-2.5-.1-3.8-.1-4.5,1.3v.1l-.1.1a2.31,2.31,0,0,0-.5.7v.2c.1-.2.2-.1.3,0Zm1.5,1.5h0l6.2.4c1.2.1,4.4.3,9.9.5q-.9.15-1.5.3a7.74,7.74,0,0,0-1.6.7l-14.2-.7h0a7.8,7.8,0,0,0-2.4.3,2.36,2.36,0,0,0-1.6,1h0v.1l-.7,1.4a1.61,1.61,0,0,0-.4.7,1.09,1.09,0,0,0,.2,1.1,1.46,1.46,0,0,0,.9.6,9.73,9.73,0,0,0,2.4.4h0c7.6.6,14.2,1,19.9,1.4h0c4.9.3,9.2.6,12.6.9,7.3.5,11.4.6,12.3.6,1.6.1,2.6-.3,3.1-1.1s.2-1.7-.4-3h0v-.1a.76.76,0,0,1-.2-.4h0a4.07,4.07,0,0,0-1.4-1.2,6.56,6.56,0,0,0-3.1-.6h0c-7.9-.5-13.8-.7-16.1-.7a9.82,9.82,0,0,0-3.2-1.3l2.6.1c4.9.2,10.9.4,18.1.7h.2l.2-.1a3.82,3.82,0,0,0,.9-.9,2,2,0,0,0,.1-1.7,4.06,4.06,0,0,0-1-1.4A6,6,0,0,0,59.9,91h-.1c-5.6-.6-11.3-1-17.2-1.3s-12-.4-18.3-.4h-.2c-3-.1-4.6-.1-5.6,2a4.89,4.89,0,0,0-.7,1.1,2.44,2.44,0,0,0,0,1.2,2.36,2.36,0,0,0,.9.8,2.89,2.89,0,0,1,1.9-.1Zm-4.2-2.1a54.1,54.1,0,0,0-2.9,6.2h0a7.72,7.72,0,0,0-.8,3.5,5.21,5.21,0,0,0,.9,2.9h0a7.07,7.07,0,0,0,1.8,2.7,2.88,2.88,0,0,0,2.1.9h.2c.3.1,1.4.2,3.5.5s5,.6,8.7,1h0c10.5.7,18.6,1.2,24.1,1.4,5.3.2,8.4.2,9.1,0a12.61,12.61,0,0,0,3.6-3.1,5.92,5.92,0,0,0,1.3-3.3A28.68,28.68,0,0,0,66.9,99c-.6-2.2-1.4-4.7-2.3-7.3a3.17,3.17,0,0,0-1.4-1.6,5.2,5.2,0,0,0-2.3-.7h-.3l-.2-.2s-.5,0-1.6-.1c-1.3-.1-3.2-.2-5.6-.3h0c-3.4-.4-7.8-.6-13-.8s-11.4-.3-18.4-.3h0a3.66,3.66,0,0,0-1.8.4,5.26,5.26,0,0,0-1.4,1.2l-.1.1-.1.1a7.54,7.54,0,0,0-2,2.7Zm-4,5.7h0a10,10,0,0,0-.9,4,6.3,6.3,0,0,0,1.1,3.5,8.84,8.84,0,0,0,2.1,3,4.74,4.74,0,0,0,2.8,1.2,32.44,32.44,0,0,0,3.6.5c2,.2,4.9.6,8.8,1h0c10.5.7,18.5,1.2,24.2,1.4s8.9.2,9.6,0h.2a15.47,15.47,0,0,0,4-3.5,8.07,8.07,0,0,0,1.6-4h0a32.56,32.56,0,0,0-1.1-6.2q-.9-3.45-2.4-7.5h0a5.1,5.1,0,0,0-1.9-2.2,6.6,6.6,0,0,0-2.9-.9h0a17.78,17.78,0,0,0-2-.3c-1.3-.1-3.1-.2-5.6-.3-3.5-.4-7.8-.6-13.1-.8s-11.4-.3-18.4-.3h0a5.56,5.56,0,0,0-2.3.5,3.53,3.53,0,0,0-1.7,1.5,11,11,0,0,0-2.4,3.1,20.46,20.46,0,0,0-3.3,6.3Zm33.4,0c.9,1.5-.6,2.8-2.1,3.5,2.4.2,4.7.3,6.6.4,7.4.5,11.5.7,12.2.6h.2c1.1.1,1.7-.1,1.9-.4s0-.9-.4-1.8h0A2.78,2.78,0,0,0,63,99a7.42,7.42,0,0,0-2.6-.5h0c-6.6-.4-11.7-.5-14.6-.6ZM113,95.8c-1.8,1-4.8,5.5-8.9,13.7-.2,1.1,0,1.2.7.5,5.1-8.9,9.8-13.6,14.1-14.2a7.29,7.29,0,0,1,5.9,1.9c-2.6-4.4-6.6-5-11.8-1.9Zm-9.1-83.6h0c-1.7,2-3.3,4-4.8,6.1-.6.8-1.2,1.7-1.8,2.5,0,.3-.1.6.2.8.1-.9.6-.8.9-1.3a15.26,15.26,0,0,1,1.1-1.6c.7-.9,1.3-1.8,2-2.7,1.7-2.3,3.2-4.3,5-6.4-1.1.7-1.7,1.8-2.6,2.6ZM72.5,19.1c-.7,1.1-1.6,2.1-2.3,3.3,0,.1-.1.3-.1.4h.2c1.3-2.5,6.6-8.9,8.4-11.5a55.8,55.8,0,0,0-6.2,7.8Zm72.6,1.4a.22.22,0,0,1-.2.2c6.7-.4,18.1.6,25.3,1.3.5,0,18.2,2.2,18.7,2.1-4.5-1.6-24.8-3.1-32-3.8a81.39,81.39,0,0,0-9.9-.2,12.86,12.86,0,0,1-1.9.4ZM63.8,70.7h3.6c2.4,0,4.7.2,7.1.2a61,61,0,0,1,7.4.2c2.7.1,5.5,0,8.2.1a81.13,81.13,0,0,0,9.9-.4c2-.3,4-.6,6-1a14.58,14.58,0,0,1,1.9-.7c.4-.2.7-.3,1.1-.5s.8-.5,1.2-.7c2.5-1.5-.7,3.3,17.4-33a11.94,11.94,0,0,0,.8-1.6,1.65,1.65,0,0,0,.1-1.8,3.63,3.63,0,0,0-3-2,346.89,346.89,0,0,0-36.7-.3c-10.5.3-23,.4-33.4,1.2a3,3,0,0,0-2.7,1.3C44.2,42.3,35.3,56.7,28.1,66c-.7.9-1.7,1.5-.7,2.7.2.3.7.4,1.1.5.2.1-.3,0,.7.1h.1c4.9.6,12.8.6,17.8.7a20.48,20.48,0,0,1,3.5.1c1.7.2,3.4,0,5.1.2a16.2,16.2,0,0,0,2.2.1c2.1.2,4,.2,5.9.3Zm77.3-40.2c-4.7.8-6.9,1.2-9.1,4.8a25.71,25.71,0,0,0-1.5,2.9c-3,5.5-6.3,12.2-8.7,17.9a12.86,12.86,0,0,0-.4,1.9c2.5-5.1,4.9-10.6,7.4-15.8.1-.3.3-.5.4-.8.9-1.7,1.7-3.5,2.7-5.2,3.1-5.4,9-5.6,14.7-6.1a1.44,1.44,0,0,1-.2-.3c-1.9.3-3.4.5-5.3.7Zm-1.7,4.9h0a13.55,13.55,0,0,0-5.2,1.5c-2.8,2.3-4.6,7.2-6.2,10.5-.1.3-.3.5-.4.8l-1.5,3.3c-.1.3-.3.5-.4.8a20,20,0,0,1-1,2.1l-1.5,3.3c-.2.3-.3.6-.5.9-.2.5-.5,1-.7,1.6-.2.4-.4.9-.6,1.3a10.37,10.37,0,0,0-.4,1c-.2.4-.3.7-.5,1.1-.4,1.2-1,2.5-1.4,3.7a10.37,10.37,0,0,0-.4,1,20.36,20.36,0,0,1-.9,2.2c-.2.5-.3.9-.5,1.4-.3.7-.5,1.4-.8,2.1-.4,1.1-.8,2.2-1.2,3.2-.5,1.5-1.1,3.1-1.5,4.6-.1.2-.2.5-.3.7a4.42,4.42,0,0,0-.2,2c1.1.3,10.8-3.1,12.3-3.7,1.1-.4,1.6,1.7,4.7,1.8,1.2,0,1.9.1,3.1,0,5.9-.6,7.5-5.1,6.9-11.1a12.9,12.9,0,0,0,2.7-3,4.19,4.19,0,0,0,.4-1.5,6.45,6.45,0,0,0,.3-2c.1-1.2.2-2.4.2-3.6.4-7.1-.1-10.8,0-21.6a11.94,11.94,0,0,0-.4-3.3c-.1-.6-.6-.9-1.1-1.2a10.35,10.35,0,0,0-3,.1ZM129.6,39ZM27.8,72.8c-.3.4-.8.8-.7,1.4l17.7.4c.7,0,1.8-1.1,2.5-1.5.1-.1.9-.6.8-.7-.1-.3-1.4-.4-1.8-.4l-15.1-.5a4.84,4.84,0,0,0-2.4.3l-1,1Zm59,.3-22.9-.4a6.83,6.83,0,0,0-3.5,1.5c-.2.1-.9.6-.7.9s1.3.2,1.6.2l19.4.6a10.21,10.21,0,0,0,3.8-1c.6-.3,1.2-.5,1.8-.8a3,3,0,0,0,1.1-.7.71.71,0,0,0-.6-.3Zm56.7,5.2a3.26,3.26,0,0,0,0,1.7,15.46,15.46,0,0,0,3.1-.4,6.71,6.71,0,0,0,1.5-.6c.7-.5.5-1.4.2-2.1a11.94,11.94,0,0,0-4.8,1.4Zm1.4,12.1h0a4.52,4.52,0,0,0,.1,2c.4.5.9,0,1.1-.4a1.65,1.65,0,0,0-.7-2.3c-.3,0-.4.4-.5.7ZM17,129.3l.7.9a4.69,4.69,0,0,0,4.1,1.3c-2.6-.5-2.2-.7-4.8-2.2Zm21,4h0a5,5,0,0,0,1.2.2c3.3.2,7.7.5,11,.8,1.1.2,2.2,0,3.3.1a3.61,3.61,0,0,0-2-.6c-3.3-.2-5.5-.4-10.4-.8a15.53,15.53,0,0,0-3.1.3Zm14.2.5Zm-37-50A6.45,6.45,0,0,1,11.8,80C9,83.8,7.7,88.5,7.2,93.9A5.78,5.78,0,0,0,10.1,96a1.37,1.37,0,0,0,1.7-.7c2.5-3.4,4.2-5.6,4.4-9.8a2.09,2.09,0,0,0-1-1.7ZM107.4,129a10.43,10.43,0,0,1-.8,2l1.9.9c.1,1.5.1,2.2.1,2.2-1.7.8-2.6,1.3-2.6,1.3a14.75,14.75,0,0,1-.1-2.9c-.2.4-.4.9-.7,1.4,0,5.3,2.1,9,6.4,11.1,4.8,2.1,9,.5,12.6-4.6,3.2-6.6,3.4-12.1.5-16.4-2-3.9-5.4-5.3-10.5-4.2-3.7,1.5-5.7,3.7-5.8,6.7a2.19,2.19,0,0,1-.5.3,1.33,1.33,0,0,0,.9-1.4,3.68,3.68,0,0,0,2.1.8c.5.1,1,.9,1.5,2.2a1.52,1.52,0,0,1-1,1.2,5.51,5.51,0,0,1-3.6-2.7,6.89,6.89,0,0,1-.8.3c.8.3,1,.9.4,1.8Zm7.9-5.9v-2.4c0-.4-.4-.5-1.1-.1-1.5.5-2.3.9-2.5,1.3l1.5,2.1q2-.15,2.1-.9Zm4.1-1.5c.3-.1.3-.3.1-.7-.9.1-1.4.8-1.7,2a9,9,0,0,0-.2,3.5,1.21,1.21,0,0,0,1,.1,2.81,2.81,0,0,0,1-1.7,19.06,19.06,0,0,0-.2-3.2Zm3,4.9c.4.9,1.1,1,2,.6.1-.5-.4-1.4-1.5-2.9a2.12,2.12,0,0,0-.5,2.3Zm-1.2,6.4s.7.2,2,.6c-.2,0,.3-.2,1.3-.7v-1.7s-.4-.2-1.1-.5c0,0-.6.3-1.9,1-.1-.2-.2.3-.3,1.3Zm-13,7a4.45,4.45,0,0,0,3.7-1.8,1.63,1.63,0,0,0-.4-2.2,7.77,7.77,0,0,0-3.8,3,1.39,1.39,0,0,1,.5,1Zm5.6,2.2c.1-.3-.2-.5-.8-.6-1,1.1-1.5,1.6-1.5,1.6a1.61,1.61,0,0,0,1.7.6c.5.1.7-.4.6-1.6Zm3.3-3.3c-.4,2-.3,3.4.2,4.1,1.2-.3,1.8-.9,1.8-1.9a2.46,2.46,0,0,0-.7-2.6c-.3-.2-.8-.1-1.3.4Zm6.1-1.8c-1,.4-1.3,1.2-1,2.5,1.1-1.5,1.4-2.3,1-2.5Zm-4.2-4.6c.2,2.9-1,4-3.8,3.3-.4,1.6,5.4,2.5,4.9-3.3-.9-2.8-2.4-3.4-4.5-1.7,1.9-.6,3,0,3.4,1.7ZM73.9,91.3a12.36,12.36,0,0,0,1.9,4.9c.7,1.4,2.5,3.7,3.6,3.8,14.8-1.6,22.8-3.2,24.2-4.2.3-2.2,1.6-10.9,2.4-12.4.3-1,1-2.3,2-4.9a46,46,0,0,1-9.7,4.1c-3.9,1.1-10.7,2.5-20.5,4.4A5,5,0,0,0,73.9,91.3Z"/><path class="cls-1" d="M128.3,62.9q1.35-2.7,1.8-2.7c5.7-.3,8,.5,8.7,3a50.89,50.89,0,0,1,1.3,10.4c.6,9.7-9.1,8.7-12,7.6A41.93,41.93,0,0,1,128.3,62.9Z"/><path class="cls-2" d="M132.3,82a12.91,12.91,0,0,1-4.24-.68l-.05,0v0a42.36,42.36,0,0,1,.19-18.36v0c1.23-2.44,1.66-2.76,1.9-2.76,5.78-.3,8.08.5,8.8,3.08a51.55,51.55,0,0,1,1.31,10.42c.19,3.17-.68,5.49-2.59,6.9A9,9,0,0,1,132.3,82Zm-4.11-.86c1.82.67,6.4,1.33,9.3-.81,1.85-1.36,2.69-3.62,2.5-6.7-.36-6.6-1-9.33-1.29-10.38-.69-2.46-2.94-3.22-8.59-2.92-.12,0-.52.25-1.71,2.63A42.16,42.16,0,0,0,128.19,81.12Z"/><path class="cls-1" d="M272.1,12.5C151.6,54.2,54.5,153.8,253.6,163,64.8,127.4,176.7,69.7,272.1,12.5Z"/></svg>