<svg id="Слой_1" data-name="Слой 1" xmlns="http://www.w3.org/2000/svg" viewBox="0 0 272.07 163.03">
    <defs>
        <style>
            .cls-1,.cls-2{fill:#f6a200;fill-rule:evenodd;}.cls-2{stroke:#ee7203;stroke-miterlimit:22.93;stroke-width:0.22px;}
        </style>
    </defs>
    <path class="cls-1"
          d="M120,2.56a221.82,221.82,0,0,1,29.28,1c2.54.31,5.1.51,7.61,1,8.7,1.82,17.43,3.56,26.09,5.57,2.84.66,5.7,1.24,8.5,2a3.89,3.89,0,0,1,2.8,2.21,30.26,30.26,0,0,1,1,5.18c.76,5.2,1.26,10.44,2,15.64,1.17,1,1.18,2.67,1.33,4.08l-.37.2c.13,1.18-.54,2.26-.37,3.44.12,2.9.23,5.81.33,8.71l-2.11,1.37q-.12-2.36-.31-5.82-.27-4.86-.68-11.92l-.75,0q.42,7.07.68,11.92.21,3.81.33,6.26-9.36,6.13-17,12-9.5,1.42-15.61,2.24-9.9,1.32-10.78,1l-.22.72q1,.32,11.1-1,5.68-.77,14.29-2Q154.29,84.17,147.2,99.1a37.6,37.6,0,0,0-3.5,16c-3.43,1-9.79,2.78-11.33,3.54-.12,0-.38.16-.51.14a20,20,0,0,0-.57,2.66c-.19.58.25,1.11.39,1.66a3.23,3.23,0,0,1,.16.81c.08.08.23.22.3.3.88-.32,1.74-.66,2.64-.9,3.08-1.1,6-2.11,9.08-3.19,0-.09.31-.32.36-.4l0,0,0,.18h0a24.26,24.26,0,0,0,.8,2.89q-6.17,2.19-12.32,4.43c0,1.72,0,3.44-.16,5.16a14.9,14.9,0,0,1-.63,3.44,33.68,33.68,0,0,1-3.7,9.12,14.81,14.81,0,0,1-5.2,5.32c-.69.41-1.5.55-2.2.92-4.68,2.79-10.61,2.86-15.67,1.09A23.78,23.78,0,0,1,93.51,140c-2.93.28-5.87.16-8.81.28-5.35.11-10.71.18-16.06,0-1.73-.06-3.45-.11-5.18-.13-6.18-.55-12.36-1-18.54-1.53a12.83,12.83,0,0,1-7.34,4.53c-5.32,1.4-8.93,1-13.94-.94a20.81,20.81,0,0,1-7.78-5.18,10,10,0,0,1-1.42-2.22,7.7,7.7,0,0,1-3.12-1.48,51.35,51.35,0,0,1-4.77-4.79A6.05,6.05,0,0,1,5.28,127a51.65,51.65,0,0,1-1.63-5.31C2,115.75.37,109.8,5.65,105a49.39,49.39,0,0,1-.21-6.88,12.15,12.15,0,0,1,.43-2.88,17.82,17.82,0,0,0,.72-2c.16-.73,0-1.56.19-2.28.21-3.71,2-7.06,5.27-12.46A12,12,0,0,1,13,77.28a37.73,37.73,0,0,1,5.21-4.74c1.66-1.27,3.35-2.52,5.1-3.67l.07-.09a.3.3,0,0,1,0-.1,55.75,55.75,0,0,1-.49-6.2c0-1.17.58-3.14,1.47-3.68a1.89,1.89,0,0,1,.64-.41c0-.34,0-.69,0-1-.07-9.51,0-19.11-.06-28.62,0,0-.07,0-.07-.07v-.58l.33,0c0,.14,0,.46,0,.6s.11-.4.11-.36l.19,29.6c.08,0,.34.37.54.39h0l.43,0c.42,0,.8.08,1.13.14l.3,0h-.09c1.27.29,1.74,1,1.5,3.34.4-.52.8-1.07,1.2-1.66.52-.77,1.08-1.55,1.61-2.31,2.8-4,5.59-8.08,8.46-12.05,1.92-2.66,3.83-5.32,5.77-8,1.52-2.07,3.12-4.13,4.68-6.18q1.5-1.95,3-3.92c3.39-4.11,6.79-8.24,10.47-12.1A31.18,31.18,0,0,1,74.52,8.48,12.85,12.85,0,0,1,79,7.36a10,10,0,0,0,1.34,0A113.68,113.68,0,0,1,92.56,4.89,184.86,184.86,0,0,1,120,2.56ZM42.76,98c-2.38-2.61-4.88-2-7.23-1.37A4.9,4.9,0,0,0,33.13,98,1,1,0,0,0,33,99.28c.51.73,2,1.38,4.8,1.71h0c1.08.08,6.07-1,5-3Zm-10.23,2.61a2.87,2.87,0,0,1-.6-.61,2.11,2.11,0,0,1,.17-2.74l-12.75-.64a7.25,7.25,0,0,0-2,.24,1.86,1.86,0,0,0-.9.45l-.68,1.36,0,.07-.05.06a1.07,1.07,0,0,0-.18.28,1,1,0,0,0,.28.15,7.37,7.37,0,0,0,2,.31h0q8.09.6,14.71,1.07Zm31.4,5.64a5,5,0,0,0-1.59-.26h0c-5.77-.33-11.19-.53-16.56-.73-9.57-.35-18.92-.7-29.38-1.74-.54,0-.8.06-.89.19a.37.37,0,0,0,0,.25,2,2,0,0,0,.24.64c.47.85,1.35,1.7,1.85,1.73h0c6.19.63,14.44,1.34,22.72,1.83,6.54.4,13.07.66,18.59.66h.21c2.45.07,3.83.1,4.46-1.31l0-.09.07-.08a2.45,2.45,0,0,0,.5-.74c0-.09,0-.15,0-.18a.54.54,0,0,0-.26-.17Zm-1.53-1.52h0c-5.72-.32-11.19-.52-16.58-.72-9.55-.36-18.89-.7-29.33-1.74h0a2.1,2.1,0,0,0-2,.74,1.51,1.51,0,0,0-.22,1.14,3.19,3.19,0,0,0,.39,1.06,4.87,4.87,0,0,0,2.85,2.38h0c6.22.63,14.48,1.33,22.75,1.83,6.54.39,13.09.65,18.66.65h.19c3,.07,4.62.12,5.6-2a3.75,3.75,0,0,0,.68-1.09,1.45,1.45,0,0,0,0-1.16,1.69,1.69,0,0,0-.89-.75,5.82,5.82,0,0,0-2-.37Zm-43.3-12a4.93,4.93,0,0,0,1.59.27h0l6.22.35h0c1.57.2,7,.39,16.84.75l17.88.66A1.28,1.28,0,0,0,62,94.4a.73.73,0,0,0,0-.63,2.22,2.22,0,0,0-.61-.85,5,5,0,0,0-1.95-1Q51.24,91,42.4,90.61t-18.27-.42h-.21c-2.45-.06-3.83-.1-4.46,1.32l0,.08-.07.08a2.4,2.4,0,0,0-.5.75c0,.08,0,.14,0,.17a.54.54,0,0,0,.26.17Zm1.53,1.52h0l6.18.35c1.16.14,4.38.29,9.93.5a10,10,0,0,0-1.54.3,8,8,0,0,0-1.63.65l-14.16-.7h0a8.67,8.67,0,0,0-2.38.28,2.84,2.84,0,0,0-1.59,1l0,0,0,0-.67,1.36a2.06,2.06,0,0,0-.38.66,1.18,1.18,0,0,0,.16,1.08,1.9,1.9,0,0,0,.87.61,8.17,8.17,0,0,0,2.41.39h0q11.39.86,19.9,1.44h0q7.41.53,12.65.85,11,.7,12.34.56c1.61.09,2.63-.28,3.06-1.12s.23-1.7-.4-3h0l0-.06c-.07-.14-.16-.29-.24-.44h0a3.65,3.65,0,0,0-1.44-1.21,7.56,7.56,0,0,0-3.08-.58h0c-7.89-.5-13.77-.65-16.08-.7a9.54,9.54,0,0,0-3.23-1.3l2.59.09,18.08.67H62l.17-.1a2.82,2.82,0,0,0,.94-.95,1.94,1.94,0,0,0,.12-1.66A3.35,3.35,0,0,0,62.31,92a6.22,6.22,0,0,0-2.5-1.34h-.1q-8.35-.85-17.25-1.27t-18.32-.42H24c-2.95-.08-4.62-.12-5.6,2A3.63,3.63,0,0,0,17.67,92a1.42,1.42,0,0,0,0,1.15,1.67,1.67,0,0,0,.88.76,6.22,6.22,0,0,0,2,.36Zm-4.22-2.12a58.4,58.4,0,0,0-2.89,6.21v0a8.1,8.1,0,0,0-.79,3.45,5.61,5.61,0,0,0,.88,2.93l0,0,0,0a7.71,7.71,0,0,0,1.79,2.67,3.35,3.35,0,0,0,2.07.91h.07l.07,0c.28.08,1.44.24,3.46.48s5,.57,8.74,1h0Q45.65,111,54,111.33c5.34.22,8.38.24,9.11,0a13.49,13.49,0,0,0,3.56-3.12A6.22,6.22,0,0,0,68,105a35.64,35.64,0,0,0-1.06-5.92,74.79,74.79,0,0,0-2.34-7.33,3.87,3.87,0,0,0-1.41-1.65,5.05,5.05,0,0,0-2.34-.73l-.25,0-.17-.19s-.49,0-1.59-.06c-1.29-.1-3.16-.19-5.59-.3h0q-5.17-.52-13-.81t-18.36-.34h0a3.73,3.73,0,0,0-1.76.38,3.81,3.81,0,0,0-1.36,1.22l-.07.1-.09.06a8.7,8.7,0,0,0-2.12,2.78ZM12.36,97.9h0a9.39,9.39,0,0,0-.9,4,6.88,6.88,0,0,0,1.06,3.54,9,9,0,0,0,2.08,3,4.57,4.57,0,0,0,2.76,1.23q.64.16,3.6.51t8.79,1h0q15.73,1.06,24.17,1.43t9.64,0l.08,0,.05,0a14.64,14.64,0,0,0,4-3.47,7.51,7.51,0,0,0,1.57-4v-.1a38.32,38.32,0,0,0-1.1-6.17,77.44,77.44,0,0,0-2.4-7.49l0-.05A5.05,5.05,0,0,0,63.85,89a6.3,6.3,0,0,0-2.91-.93h0a10.75,10.75,0,0,0-2-.29q-1.87-.15-5.61-.3Q48.11,87,40.23,86.7t-18.4-.33h0a4.92,4.92,0,0,0-2.35.51,5.14,5.14,0,0,0-1.75,1.52,10.33,10.33,0,0,0-2.41,3.15,56.91,56.91,0,0,0-3,6.35Zm33.49,0c.86,1.47-.61,2.78-2.09,3.53l6.62.43q11.15.7,12.15.56h.13c1.1.07,1.74-.07,1.92-.43s0-.94-.38-1.8h0A2.64,2.64,0,0,0,63,99a6.16,6.16,0,0,0-2.58-.46h0c-6.55-.41-11.68-.59-14.55-.66ZM113,95.8q-2.73,1.47-8.86,13.65c-.24,1,0,1.23.67.53q7.65-13.37,14.12-14.18a7.71,7.71,0,0,1,5.92,1.86q-4-6.51-11.85-1.86Zm-9.09-83.57h0c-1.67,2-3.3,4-4.79,6.15l-1.78,2.5a1,1,0,0,0,.15.79c.09-.87.59-.8.94-1.29s.74-1.06,1.07-1.61c.68-.85,1.32-1.81,2-2.66,1.67-2.26,3.15-4.32,5-6.43-1.11.58-1.73,1.71-2.6,2.55ZM72.48,19.06c-.69,1.08-1.56,2.12-2.29,3.35l-.12.44.2,0c1.32-2.5,6.59-8.94,8.36-11.52a55.82,55.82,0,0,0-6.15,7.7Zm72.65,1.43-.16.24c6.71-.45,18.12.63,25.25,1.34.48,0,18.21,2.17,18.68,2.14-4.5-1.63-24.79-3.13-32-3.79a74.13,74.13,0,0,0-9.91-.17c-.45,0-1.34.18-1.83.24ZM63.84,70.74c1.21,0,2.43,0,3.64,0,2.36,0,4.71.24,7.07.19s4.92-.09,7.37.16c2.74.09,5.47,0,8.22.11a78.7,78.7,0,0,0,9.9-.37c2-.3,4-.58,6-1,.64-.27,1.3-.45,1.95-.69.36-.16.74-.3,1.11-.45l1.19-.71c2.54-1.49-.72,3.29,17.35-33,.27-.55.55-1.06.83-1.59a2,2,0,0,0,.15-1.84,3.53,3.53,0,0,0-3-2c-13-.87-24.29-.69-36.73-.34-10.49.29-23,.39-33.36,1.22a2.82,2.82,0,0,0-2.69,1.3c-8.51,10.57-17.41,25-24.59,34.34-.69.89-1.73,1.54-.68,2.73a3,3,0,0,0,1.13.52c.2.07-.29,0,.66.13h.08c4.9.57,12.79.6,17.84.66a29.44,29.44,0,0,1,3.51.09c1.73.21,3.41,0,5.1.19a13.38,13.38,0,0,0,2.19.09c1.91,0,3.82,0,5.72.18ZM141.1,30.52c-4.71.78-6.86,1.19-9.09,4.81a28.76,28.76,0,0,0-1.52,2.93c-3,5.52-6.26,12.23-8.73,17.93-.17.39-.28,1.46-.4,1.87,2.55-5.1,5-10.55,7.44-15.75l.38-.77c.9-1.71,1.72-3.47,2.69-5.15,3.13-5.41,9-5.56,14.73-6.06l-.22-.35c-1.86.13-3.39.32-5.28.54Zm-1.65,4.86h0c-1.77.3-3.64.46-5.18,1.46-2.79,2.34-4.62,7.25-6.16,10.49-.14.25-.27.5-.39.76-.54,1.07-1,2.18-1.53,3.26-.13.25-.26.51-.38.77-.34.69-.62,1.41-1,2.1-.53,1.08-1,2.18-1.53,3.26-.15.31-.29.61-.46.91-.23.52-.45,1-.69,1.57s-.36.9-.57,1.34a9.56,9.56,0,0,0-.38,1c-.15.37-.3.74-.47,1.1-.44,1.25-1,2.46-1.45,3.69-.13.31-.25.63-.38,1-.33.73-.53,1.51-.85,2.25-.18.45-.34.92-.49,1.38-.29.69-.52,1.4-.76,2.11-.42,1.07-.79,2.16-1.16,3.24-.54,1.52-1,3.06-1.53,4.6-.1.25-.18.5-.27.75a4.55,4.55,0,0,0-.25,2c1.14.29,10.81-3.13,12.33-3.66,1.13-.4,1.55,1.65,4.7,1.75a19.93,19.93,0,0,0,3.09,0c5.93-.57,7.46-5,6.89-11.08a12.27,12.27,0,0,0,2.68-3,5,5,0,0,0,.36-1.49,14.63,14.63,0,0,0,.34-2c.13-1.17.17-2.4.23-3.58.37-7.11-.13-10.8,0-21.6a11,11,0,0,0-.42-3.33,2.13,2.13,0,0,0-1.13-1.21,20,20,0,0,0-3.19.22ZM129.62,39ZM27.83,72.77c-.34.37-.81.84-.74,1.37l17.73.41c.75,0,1.83-1.07,2.49-1.52.1-.07.93-.59.83-.73S46.65,72,46.33,72L31.22,71.5a4,4,0,0,0-2.36.33,7.05,7.05,0,0,0-1,.94Zm59,.3-22.87-.41a6.88,6.88,0,0,0-3.49,1.46c-.23.15-1,.61-.74.95s1.3.22,1.6.23l19.37.59a8.83,8.83,0,0,0,3.75-1l1.83-.79a3.33,3.33,0,0,0,1.14-.73,1.09,1.09,0,0,0-.59-.28Zm56.72,5.21a3.62,3.62,0,0,0,0,1.67,14.49,14.49,0,0,0,3.14-.44,8.65,8.65,0,0,0,1.54-.57c.66-.46.51-1.42.25-2.07a13,13,0,0,0-4.92,1.41ZM144.9,90.4h0a3.68,3.68,0,0,0,.13,2c.38.46.92,0,1.1-.41a1.64,1.64,0,0,0-.73-2.28c-.33.06-.41.44-.5.72ZM17,129.34l.72.95a4.5,4.5,0,0,0,4.11,1.25c-2.55-.52-2.16-.77-4.83-2.2Zm21,3.92h0a10.12,10.12,0,0,0,1.16.2c3.29.22,7.69.52,10.95.81,1.07.24,2.18,0,3.25.15a4.12,4.12,0,0,0-2-.6c-3.27-.23-5.49-.38-10.37-.82a24,24,0,0,0-3,.26Zm14.24.52Zm-37-50A6.58,6.58,0,0,1,11.84,80C9,83.81,7.66,88.48,7.22,93.9A5.73,5.73,0,0,0,10.11,96a1.38,1.38,0,0,0,1.73-.73c2.47-3.43,4.22-5.59,4.38-9.84a2.1,2.1,0,0,0-1-1.66ZM107.36,129a12.87,12.87,0,0,1-.82,2l1.87.88c.06,1.48.1,2.23.1,2.23l-2.6,1.26a14.52,14.52,0,0,1-.09-2.88c-.2.42-.43.89-.68,1.39q0,8,6.4,11.1,7.18,3.1,12.6-4.57,4.8-9.92.54-16.43-2.94-5.85-10.48-4.22-5.61,2.2-5.77,6.71a2.89,2.89,0,0,1-.5.33,1.24,1.24,0,0,0,.88-1.35,3.67,3.67,0,0,0,2.1.8c.47.1,1,.86,1.54,2.17a1.32,1.32,0,0,1-1,1.16,5.42,5.42,0,0,1-3.61-2.71,3.44,3.44,0,0,1-.84.26c.89.37,1,1,.4,1.87Zm7.93-6c0-1.61,0-2.41,0-2.41,0-.44-.4-.48-1.08-.14-1.51.51-2.35.94-2.51,1.3l1.52,2.13c1.24,0,1.92-.3,2.06-.88Zm4.07-1.51c.28-.07.3-.32.06-.74q-1.33.14-1.68,2a8.18,8.18,0,0,0-.16,3.48,1.17,1.17,0,0,0,1,.06,3.33,3.33,0,0,0,1-1.73,13.47,13.47,0,0,0-.23-3Zm3,5c.37.86,1.07,1,2,.61.15-.53-.37-1.43-1.48-2.86a2,2,0,0,0-.5,2.25Zm-1.2,6.33,2,.6c-.17,0,.26-.21,1.26-.73l0-1.73-1.13-.53-1.93,1-.2,1.43Zm-13,7a4.63,4.63,0,0,0,3.73-1.83,1.66,1.66,0,0,0-.4-2.23,8.38,8.38,0,0,0-3.83,3,2.38,2.38,0,0,1,.5,1.07Zm5.53,2.16c.08-.34-.18-.52-.8-.56l-1.53,1.63a1.75,1.75,0,0,0,1.69.63c.56.08.77-.49.64-1.7Zm3.36-3.29c-.36,2-.28,3.4.23,4.12,1.19-.29,1.79-.93,1.8-1.93a2.5,2.5,0,0,0-.7-2.56c-.38-.23-.82-.11-1.33.37Zm6-1.77c-1,.37-1.3,1.19-1,2.47,1.1-1.46,1.42-2.28,1-2.47ZM119,132.4q.33,4.33-3.8,3.26c-.39,1.57,5.4,2.49,4.93-3.33q-1.41-4.26-4.53-1.73,2.76-.81,3.4,1.8ZM73.92,91.35a11.4,11.4,0,0,0,1.91,4.87c.69,1.37,2.53,3.71,3.65,3.81,14.83-1.58,22.76-3.19,24.15-4.2C104,93.62,105.18,85,106,83.42c.29-1,1-2.33,2-5a46.67,46.67,0,0,1-9.68,4.08q-5.82,1.61-20.47,4.35A5.27,5.27,0,0,0,73.92,91.35Z"/>
    <path class="cls-2"
          d="M128.3,62.94c.86-1.75,1.46-2.67,1.81-2.75,5.74-.26,8,.52,8.68,3,.53,1.57,1,5,1.33,10.39.55,9.72-9.11,8.65-12,7.6A40.82,40.82,0,0,1,128.3,62.94Z"/>
    <path class="cls-1" d="M272.07,12.48C151.64,54.15,54.49,153.84,253.62,163,64.82,127.44,176.69,69.71,272.07,12.48Z"/>
</svg>