<?xml version="1.0" encoding="utf-8"?>
<!-- Generator: Adobe Illustrator 24.1.1, SVG Export Plug-In . SVG Version: 6.00 Build 0)  -->
<svg version="1.1" id="Слой_1" xmlns="http://www.w3.org/2000/svg" xmlns:xlink="http://www.w3.org/1999/xlink" x="0px" y="0px"
	 viewBox="0 0 799.5 163" style="enable-background:new 0 0 799.5 163;" xml:space="preserve">
<style type="text/css">
	.st0{fill-rule:evenodd;clip-rule:evenodd;fill:#F6A200;}
	.st1{fill-rule:evenodd;clip-rule:evenodd;fill:#F6A200;stroke:#EE7203;stroke-width:0.216;stroke-miterlimit:22.9256;}
	.st2{fill:#FFFFFF;}
</style>
<g>
	<path class="st0" d="M120,2.6c9.8-0.1,19.6-0.1,29.3,1c2.5,0.3,5.1,0.5,7.6,1c8.7,1.8,17.4,3.6,26.1,5.6c2.8,0.7,5.7,1.2,8.5,2
		c1.2,0.3,2.4,1,2.8,2.2c0.6,1.7,0.8,3.4,1,5.2c0.8,5.2,1.3,10.4,2,15.6c1.2,1,1.2,2.7,1.3,4.1c-0.1,0-0.3,0.2-0.4,0.2
		c0.1,1.2-0.5,2.3-0.4,3.4c0.1,2.9,0.2,5.8,0.3,8.7c-0.7,0.5-1.4,0.9-2.1,1.4c-0.1-1.6-0.2-3.5-0.3-5.8c-0.2-3.2-0.4-7.2-0.7-11.9
		l-0.8,0c0.3,4.7,0.5,8.7,0.7,11.9c0.1,2.5,0.2,4.6,0.3,6.3c-6.2,4.1-11.9,8.1-17,12c-6.3,0.9-11.5,1.7-15.6,2.2
		c-6.6,0.9-10.2,1.2-10.8,1.1l-0.2,0.7c0.7,0.2,4.4-0.1,11.1-1c3.8-0.5,8.5-1.2,14.3-2c-15.2,11.8-25.2,22.7-29.9,32.6
		c-2.5,5.7-3.6,11.1-3.5,16c-3.4,0.9-9.8,2.8-11.3,3.5c-0.1,0-0.4,0.2-0.5,0.1c-0.3,0.8-0.4,1.8-0.6,2.7c-0.2,0.6,0.3,1.1,0.4,1.7
		c0.1,0.3,0.1,0.5,0.2,0.8c0.1,0.1,0.2,0.2,0.3,0.3c0.9-0.3,1.7-0.7,2.6-0.9c3.1-1.1,6-2.1,9.1-3.2c0-0.1,0.3-0.3,0.4-0.4l0,0l0,0.2
		l0,0h0c0.2,1,0.5,1.9,0.8,2.9c-4.1,1.5-8.2,2.9-12.3,4.4c0,1.7,0,3.4-0.2,5.2c0,1.2-0.4,2.3-0.6,3.4c-0.8,3.2-2,6.3-3.7,9.1
		c-1.3,2.1-3,4.1-5.2,5.3c-0.7,0.4-1.5,0.5-2.2,0.9c-4.7,2.8-10.6,2.9-15.7,1.1c-5.3-2.4-9.4-7-11.7-12.2c-2.9,0.3-5.9,0.2-8.8,0.3
		c-5.4,0.1-10.7,0.2-16.1,0c-1.7-0.1-3.5-0.1-5.2-0.1c-6.2-0.6-12.4-1-18.5-1.5c-1.8,2.4-4.5,3.8-7.3,4.5c-5.3,1.4-8.9,1-13.9-0.9
		c-2.9-1.2-5.7-2.8-7.8-5.2c-0.6-0.7-1-1.4-1.4-2.2c-1.1-0.3-2.2-0.7-3.1-1.5c-1.7-1.5-3.3-3.1-4.8-4.8c-0.5-0.5-1-1-1.3-1.6
		c-0.8-1.7-1.1-3.5-1.6-5.3c-1.7-6-3.3-11.9,2-16.7c-0.2-2.3-0.3-4.6-0.2-6.9c0.1-1,0.1-2,0.4-2.9c0.3-0.8,0.5-1.2,0.7-2
		c0.2-0.7,0-1.6,0.2-2.3c0.2-3.7,2-7.1,5.3-12.5c0.3-0.4,0.6-0.8,0.9-1.2c1.5-1.8,3.4-3.3,5.2-4.7c1.7-1.3,3.3-2.5,5.1-3.7l0.1-0.1
		c0,0,0-0.1,0-0.1c-0.2-1-0.4-3.5-0.5-6.2c0-1.2,0.6-3.1,1.5-3.7c0.2-0.2,0.4-0.3,0.6-0.4c0-0.3,0-0.7,0-1c-0.1-9.5,0-19.1-0.1-28.6
		c0-0.1-0.1,0-0.1-0.1c0-0.2,0-0.4,0-0.6l0.3,0c0,0.1,0,0.5,0,0.6c0,0,0.1-0.4,0.1-0.4l0.2,29.6c0.1,0,0.3,0.4,0.5,0.4h0l0,0h0
		c0.1,0,0.3,0,0.4,0c0.4,0,0.8,0.1,1.1,0.1c0.1,0,0.2,0,0.3,0c0,0-0.1,0-0.1,0c1.3,0.3,1.7,1,1.5,3.3c0.4-0.5,0.8-1.1,1.2-1.7
		c0.5-0.8,1.1-1.5,1.6-2.3c2.8-4,5.6-8.1,8.5-12c1.9-2.7,3.8-5.3,5.8-8c1.5-2.1,3.1-4.1,4.7-6.2c1-1.3,2-2.6,3-3.9
		c3.4-4.1,6.8-8.2,10.5-12.1c2.9-2.9,6.2-5.6,10.1-7.2c1.4-0.6,2.9-1.1,4.5-1.1c0.4,0,0.9,0,1.3,0c4-1.1,8.1-1.8,12.2-2.4
		C101.6,3.4,110.8,2.7,120,2.6L120,2.6z M42.8,98c-2.4-2.6-4.9-2-7.2-1.4c-1.1,0.3-1.9,0.8-2.4,1.4c-0.4,0.4-0.5,0.9-0.2,1.3
		c0.5,0.7,2,1.4,4.8,1.7l0,0l0,0C38.8,101.1,43.8,99.9,42.8,98L42.8,98z M32.5,100.6c-0.3-0.2-0.4-0.4-0.6-0.6
		c-0.7-0.9-0.5-1.9,0.2-2.7l-12.7-0.6c-0.8,0-1.5,0.1-2,0.2c-0.4,0.1-0.7,0.3-0.9,0.5l-0.7,1.4l0,0.1l0,0.1
		c-0.1,0.1-0.2,0.2-0.2,0.3c0,0,0.1,0.1,0.3,0.1c0.4,0.2,1.1,0.3,2,0.3h0C23.2,99.9,28.1,100.3,32.5,100.6L32.5,100.6z M63.9,106.3
		c-0.3-0.1-0.9-0.2-1.6-0.3h0c-5.8-0.3-11.2-0.5-16.6-0.7c-9.6-0.4-18.9-0.7-29.4-1.7c-0.5,0-0.8,0.1-0.9,0.2c0,0,0,0.1,0,0.3
		c0,0.2,0.1,0.4,0.2,0.6c0.5,0.8,1.3,1.7,1.8,1.7l0,0c6.2,0.6,14.4,1.3,22.7,1.8c6.5,0.4,13.1,0.7,18.6,0.7h0l0.2,0
		c2.5,0.1,3.8,0.1,4.5-1.3l0-0.1l0.1-0.1c0.3-0.3,0.4-0.5,0.5-0.7c0-0.1,0-0.1,0-0.2C64.2,106.4,64.1,106.3,63.9,106.3L63.9,106.3z
		 M62.4,104.7L62.4,104.7c-5.7-0.3-11.2-0.5-16.6-0.7c-9.6-0.4-18.9-0.7-29.3-1.7l0,0c-1,0-1.7,0.3-2,0.7c-0.2,0.3-0.3,0.7-0.2,1.1
		c0.1,0.3,0.2,0.7,0.4,1.1c0.6,1.1,2,2.3,2.9,2.4v0c6.2,0.6,14.5,1.3,22.8,1.8c6.5,0.4,13.1,0.7,18.7,0.7l0.2,0c3,0.1,4.6,0.1,5.6-2
		c0.3-0.4,0.6-0.8,0.7-1.1c0.1-0.4,0.1-0.8,0-1.2c-0.2-0.3-0.5-0.6-0.9-0.8C63.9,104.9,63.3,104.8,62.4,104.7L62.4,104.7z
		 M19.1,92.8c0.3,0.1,0.9,0.2,1.6,0.3h0l6.2,0.4l0,0c1.6,0.2,7,0.4,16.8,0.7c4.9,0.2,10.8,0.4,17.9,0.7c0.2-0.1,0.3-0.3,0.4-0.4
		c0.1-0.2,0.1-0.4,0-0.6c-0.1-0.3-0.3-0.6-0.6-0.8c-0.5-0.5-1.2-0.8-1.9-1c-5.5-0.6-11.2-1-17.1-1.3c-5.9-0.3-12-0.4-18.3-0.4h0
		l-0.2,0c-2.5-0.1-3.8-0.1-4.5,1.3l0,0.1l-0.1,0.1c-0.3,0.3-0.4,0.5-0.5,0.7c0,0.1,0,0.1,0,0.2C18.9,92.6,19,92.7,19.1,92.8
		L19.1,92.8z M20.6,94.3L20.6,94.3l6.2,0.4c1.2,0.1,4.4,0.3,9.9,0.5c-0.6,0.1-1.1,0.2-1.5,0.3c-0.6,0.2-1.1,0.4-1.6,0.7l-14.2-0.7h0
		c-1,0-1.8,0.1-2.4,0.3c-0.8,0.2-1.3,0.5-1.6,1l0,0l0,0.1l-0.7,1.4c-0.2,0.2-0.3,0.4-0.4,0.7c-0.1,0.4-0.1,0.8,0.2,1.1
		c0.2,0.3,0.5,0.5,0.9,0.6c0.5,0.2,1.3,0.3,2.4,0.4v0c7.6,0.6,14.2,1,19.9,1.4h0l0,0c4.9,0.3,9.2,0.6,12.6,0.9
		c7.3,0.5,11.4,0.6,12.3,0.6c1.6,0.1,2.6-0.3,3.1-1.1c0.4-0.7,0.2-1.7-0.4-3l0,0c0,0,0,0,0-0.1c-0.1-0.1-0.2-0.3-0.2-0.4l0,0
		c-0.4-0.5-0.8-0.9-1.4-1.2c-0.8-0.4-1.7-0.6-3.1-0.6v0c-7.9-0.5-13.8-0.7-16.1-0.7c-1-0.6-2.1-1.1-3.2-1.3l2.6,0.1
		c4.9,0.2,10.9,0.4,18.1,0.7l0.2,0l0.2-0.1c0.4-0.3,0.7-0.6,0.9-0.9c0.3-0.5,0.3-1.1,0.1-1.7c-0.2-0.5-0.5-0.9-1-1.4
		c-0.7-0.6-1.6-1.1-2.5-1.3l0,0l-0.1,0c-5.6-0.6-11.3-1-17.2-1.3c-5.9-0.3-12-0.4-18.3-0.4l-0.2,0c-3-0.1-4.6-0.1-5.6,2
		c-0.3,0.4-0.6,0.8-0.7,1.1c-0.1,0.4-0.1,0.8,0,1.2c0.2,0.3,0.5,0.6,0.9,0.8C19.1,94.1,19.8,94.2,20.6,94.3L20.6,94.3z M16.4,92.2
		c-0.9,1.5-1.8,3.6-2.9,6.2l0,0c-0.6,1.2-0.8,2.4-0.8,3.5c0,1,0.3,2,0.9,2.9l0,0l0,0c0.5,1.2,1.1,2.1,1.8,2.7
		c0.6,0.6,1.3,0.9,2.1,0.9l0.1,0l0.1,0c0.3,0.1,1.4,0.2,3.5,0.5c2.1,0.2,5,0.6,8.7,1v0c10.5,0.7,18.6,1.2,24.1,1.4
		c5.3,0.2,8.4,0.2,9.1,0c1.6-1,2.8-2,3.6-3.1c0.8-1,1.2-2.1,1.3-3.3c-0.1-1.8-0.5-3.7-1.1-5.9c-0.6-2.2-1.4-4.7-2.3-7.3
		c-0.3-0.7-0.8-1.3-1.4-1.6c-0.6-0.4-1.4-0.6-2.3-0.7l-0.3,0l-0.2-0.2c0,0-0.5,0-1.6-0.1c-1.3-0.1-3.2-0.2-5.6-0.3l0,0
		c-3.4-0.4-7.8-0.6-13-0.8c-5.2-0.2-11.4-0.3-18.4-0.3h0c-0.7,0-1.2,0.1-1.8,0.4c-0.5,0.3-1,0.7-1.4,1.2l-0.1,0.1l-0.1,0.1
		C17.9,89.8,17.2,90.7,16.4,92.2L16.4,92.2z M12.4,97.9L12.4,97.9c-0.6,1.4-0.9,2.7-0.9,4c0,1.3,0.4,2.4,1.1,3.5
		c0.6,1.3,1.3,2.3,2.1,3c0.8,0.7,1.7,1.1,2.8,1.2c0.4,0.1,1.6,0.3,3.6,0.5c2,0.2,4.9,0.6,8.8,1l0,0c10.5,0.7,18.5,1.2,24.2,1.4
		c5.7,0.2,8.9,0.2,9.6,0l0.1,0l0.1,0c1.7-1.1,3-2.2,4-3.5c0.9-1.3,1.5-2.6,1.6-4l0,0l0,0c-0.1-1.8-0.5-3.9-1.1-6.2
		c-0.6-2.3-1.4-4.8-2.4-7.5l0,0c-0.4-0.9-1.1-1.7-1.9-2.2c-0.8-0.5-1.8-0.8-2.9-0.9l0,0c-0.4-0.1-1.1-0.2-2-0.3
		c-1.3-0.1-3.1-0.2-5.6-0.3c-3.5-0.4-7.8-0.6-13.1-0.8c-5.2-0.2-11.4-0.3-18.4-0.3l0,0c-0.9,0-1.6,0.2-2.3,0.5
		c-0.7,0.3-1.3,0.8-1.7,1.5c-0.7,0.5-1.5,1.6-2.4,3.1C14.4,93.1,13.4,95.2,12.4,97.9L12.4,97.9z M45.8,97.9c0.9,1.5-0.6,2.8-2.1,3.5
		c2.4,0.2,4.7,0.3,6.6,0.4c7.4,0.5,11.5,0.7,12.2,0.6l0.1,0l0.1,0c1.1,0.1,1.7-0.1,1.9-0.4c0.2-0.3,0-0.9-0.4-1.8l0,0
		c-0.3-0.5-0.6-0.9-1.2-1.2c-0.6-0.3-1.4-0.4-2.6-0.5h0C53.8,98.1,48.7,98,45.8,97.9L45.8,97.9z M113,95.8c-1.8,1-4.8,5.5-8.9,13.7
		c-0.2,1.1,0,1.2,0.7,0.5c5.1-8.9,9.8-13.6,14.1-14.2c2-0.3,4,0.3,5.9,1.9C122.2,93.3,118.2,92.7,113,95.8L113,95.8z M103.9,12.2
		L103.9,12.2c-1.7,2-3.3,4-4.8,6.1c-0.6,0.8-1.2,1.7-1.8,2.5c0,0.3-0.1,0.6,0.2,0.8c0.1-0.9,0.6-0.8,0.9-1.3
		c0.3-0.5,0.7-1.1,1.1-1.6c0.7-0.9,1.3-1.8,2-2.7c1.7-2.3,3.2-4.3,5-6.4C105.4,10.3,104.8,11.4,103.9,12.2L103.9,12.2z M72.5,19.1
		c-0.7,1.1-1.6,2.1-2.3,3.3c0,0.1-0.1,0.3-0.1,0.4c0.1,0,0.2,0,0.2,0c1.3-2.5,6.6-8.9,8.4-11.5C76.4,13.5,74.2,16.7,72.5,19.1
		L72.5,19.1z M145.1,20.5c0,0.1-0.1,0.2-0.2,0.2c6.7-0.4,18.1,0.6,25.3,1.3c0.5,0,18.2,2.2,18.7,2.1c-4.5-1.6-24.8-3.1-32-3.8
		c-3.3-0.2-6.5-0.4-9.9-0.2C146.5,20.3,145.6,20.4,145.1,20.5L145.1,20.5z M63.8,70.7c1.2,0,2.4,0,3.6,0c2.4,0,4.7,0.2,7.1,0.2
		c2.5,0,4.9-0.1,7.4,0.2c2.7,0.1,5.5,0,8.2,0.1c2.1,0.1,7.9-0.1,9.9-0.4c2-0.3,4-0.6,6-1c0.6-0.3,1.3-0.5,1.9-0.7
		c0.4-0.2,0.7-0.3,1.1-0.5c0.4-0.2,0.8-0.5,1.2-0.7c2.5-1.5-0.7,3.3,17.4-33c0.3-0.5,0.6-1.1,0.8-1.6c0.3-0.5,0.5-1.1,0.1-1.8
		c-0.4-1-1.8-2-3-2c-13-0.9-24.3-0.7-36.7-0.3c-10.5,0.3-23,0.4-33.4,1.2c-1.2,0.1-1.7,0.1-2.7,1.3c-8.5,10.6-17.4,25-24.6,34.3
		c-0.7,0.9-1.7,1.5-0.7,2.7c0.2,0.3,0.7,0.4,1.1,0.5c0.2,0.1-0.3,0,0.7,0.1c0,0,0,0,0.1,0c4.9,0.6,12.8,0.6,17.8,0.7
		c1.2,0,2.3-0.1,3.5,0.1c1.7,0.2,3.4,0,5.1,0.2c0.8,0.1,1.4,0.1,2.2,0.1C60,70.6,61.9,70.6,63.8,70.7L63.8,70.7z M141.1,30.5
		c-4.7,0.8-6.9,1.2-9.1,4.8c-0.5,0.8-1,1.8-1.5,2.9c-3,5.5-6.3,12.2-8.7,17.9c-0.2,0.4-0.3,1.5-0.4,1.9c2.5-5.1,4.9-10.6,7.4-15.8
		c0.1-0.3,0.3-0.5,0.4-0.8c0.9-1.7,1.7-3.5,2.7-5.2c3.1-5.4,9-5.6,14.7-6.1c-0.1-0.1-0.2-0.3-0.2-0.3
		C144.5,30.1,143,30.3,141.1,30.5L141.1,30.5z M139.4,35.4L139.4,35.4c-1.8,0.3-3.6,0.5-5.2,1.5c-2.8,2.3-4.6,7.2-6.2,10.5
		c-0.1,0.3-0.3,0.5-0.4,0.8c-0.5,1.1-1,2.2-1.5,3.3c-0.1,0.3-0.3,0.5-0.4,0.8c-0.3,0.7-0.6,1.4-1,2.1c-0.5,1.1-1,2.2-1.5,3.3
		c-0.2,0.3-0.3,0.6-0.5,0.9c-0.2,0.5-0.5,1-0.7,1.6c-0.2,0.4-0.4,0.9-0.6,1.3c-0.1,0.3-0.3,0.6-0.4,1c-0.2,0.4-0.3,0.7-0.5,1.1
		c-0.4,1.2-1,2.5-1.4,3.7c-0.1,0.3-0.3,0.6-0.4,1c-0.3,0.7-0.5,1.5-0.9,2.2c-0.2,0.5-0.3,0.9-0.5,1.4c-0.3,0.7-0.5,1.4-0.8,2.1
		c-0.4,1.1-0.8,2.2-1.2,3.2c-0.5,1.5-1.1,3.1-1.5,4.6c-0.1,0.2-0.2,0.5-0.3,0.7c-0.2,0.6-0.3,1.3-0.2,2c1.1,0.3,10.8-3.1,12.3-3.7
		c1.1-0.4,1.6,1.7,4.7,1.8c1.2,0,1.9,0.1,3.1,0c5.9-0.6,7.5-5.1,6.9-11.1c1-0.9,2-1.8,2.7-3c0.3-0.5,0.3-1,0.4-1.5
		c0.2-0.7,0.3-1.2,0.3-2c0.1-1.2,0.2-2.4,0.2-3.6c0.4-7.1-0.1-10.8,0-21.6c0-1.2-0.1-2.2-0.4-3.3c-0.1-0.6-0.6-0.9-1.1-1.2
		C141.6,35.1,140.5,35.3,139.4,35.4L139.4,35.4z M129.6,39L129.6,39C129.7,39.1,129.7,39.1,129.6,39L129.6,39z M27.8,72.8
		c-0.3,0.4-0.8,0.8-0.7,1.4l17.7,0.4c0.7,0,1.8-1.1,2.5-1.5c0.1-0.1,0.9-0.6,0.8-0.7C48,72.1,46.7,72,46.3,72l-15.1-0.5
		c-0.8,0-1.7-0.1-2.4,0.3C28.5,72.1,28.1,72.5,27.8,72.8L27.8,72.8z M86.8,73.1l-22.9-0.4c-1.3,0-2.4,0.8-3.5,1.5
		c-0.2,0.1-0.9,0.6-0.7,0.9c0.1,0.2,1.3,0.2,1.6,0.2l19.4,0.6c1.4,0,2.5-0.5,3.8-1c0.6-0.3,1.2-0.5,1.8-0.8c0.4-0.2,0.9-0.4,1.1-0.7
		C87.3,73.2,87,73.1,86.8,73.1L86.8,73.1z M143.5,78.3c-0.2,0.5-0.1,1.1,0,1.7c1.1,0,2.1-0.2,3.1-0.4c0.5-0.2,1.1-0.3,1.5-0.6
		c0.7-0.5,0.5-1.4,0.2-2.1C146.1,77.1,144.6,77.7,143.5,78.3L143.5,78.3z M144.9,90.4L144.9,90.4c-0.2,0.7,0,1.3,0.1,2
		c0.4,0.5,0.9,0,1.1-0.4c0.4-0.8,0.2-2-0.7-2.3C145.1,89.7,145,90.1,144.9,90.4L144.9,90.4z M17,129.3l0.7,0.9
		c0.8,1,2.5,1.5,4.1,1.3C19.2,131,19.6,130.8,17,129.3L17,129.3z M38,133.3L38,133.3c0.4,0.1,0.8,0.2,1.2,0.2
		c3.3,0.2,7.7,0.5,11,0.8c1.1,0.2,2.2,0,3.3,0.1c-0.7-0.4-1.2-0.6-2-0.6c-3.3-0.2-5.5-0.4-10.4-0.8C39.9,133.1,39.1,133,38,133.3
		L38,133.3z M52.2,133.8L52.2,133.8C52.3,133.9,52.3,133.9,52.2,133.8L52.2,133.8z M15.2,83.8C13.6,83,12.6,82,11.8,80
		C9,83.8,7.7,88.5,7.2,93.9C8,95,8.7,95.4,10.1,96c0.7,0.2,1.3,0,1.7-0.7c2.5-3.4,4.2-5.6,4.4-9.8C16.2,84.9,15.9,84.3,15.2,83.8
		L15.2,83.8z M107.4,129c0,0.2-0.3,0.9-0.8,2l1.9,0.9c0.1,1.5,0.1,2.2,0.1,2.2c-1.7,0.8-2.6,1.3-2.6,1.3c-0.1-1.1-0.2-2.1-0.1-2.9
		c-0.2,0.4-0.4,0.9-0.7,1.4c0,5.3,2.1,9,6.4,11.1c4.8,2.1,9,0.5,12.6-4.6c3.2-6.6,3.4-12.1,0.5-16.4c-2-3.9-5.4-5.3-10.5-4.2
		c-3.7,1.5-5.7,3.7-5.8,6.7c-0.1,0.1-0.3,0.2-0.5,0.3c0.6-0.2,0.9-0.7,0.9-1.4c0.7,0.5,1.4,0.8,2.1,0.8c0.5,0.1,1,0.9,1.5,2.2
		c-0.1,0.5-0.4,1-1,1.2c-1.6-0.4-2.8-1.3-3.6-2.7c-0.2,0.1-0.5,0.2-0.8,0.3C107.8,127.5,108,128.1,107.4,129L107.4,129z
		 M115.3,123.1c0-1.6,0-2.4,0-2.4c0-0.4-0.4-0.5-1.1-0.1c-1.5,0.5-2.3,0.9-2.5,1.3c1,1.4,1.5,2.1,1.5,2.1
		C114.5,123.9,115.2,123.6,115.3,123.1L115.3,123.1z M119.4,121.6c0.3-0.1,0.3-0.3,0.1-0.7c-0.9,0.1-1.4,0.8-1.7,2
		c-0.3,0.8-0.3,1.9-0.2,3.5c0.4,0.2,0.7,0.2,1,0.1c0.7-0.7,1-1.3,1-1.7C119.6,123.2,119.5,122.1,119.4,121.6L119.4,121.6z
		 M122.4,126.5c0.4,0.9,1.1,1,2,0.6c0.1-0.5-0.4-1.4-1.5-2.9C122.2,125.1,122.1,125.8,122.4,126.5L122.4,126.5z M121.2,132.9
		c0,0,0.7,0.2,2,0.6c-0.2,0,0.3-0.2,1.3-0.7c0,0,0-0.6,0-1.7c0,0-0.4-0.2-1.1-0.5c0,0-0.6,0.3-1.9,1
		C121.4,131.4,121.3,131.9,121.2,132.9L121.2,132.9z M108.2,139.9c1.7-0.1,3-0.7,3.7-1.8c0.5-0.7,0.3-1.5-0.4-2.2
		c-1.7,0.7-3,1.7-3.8,3C108,139.2,108.2,139.5,108.2,139.9L108.2,139.9z M113.8,142.1c0.1-0.3-0.2-0.5-0.8-0.6
		c-1,1.1-1.5,1.6-1.5,1.6c0.6,0.6,1.2,0.8,1.7,0.6C113.7,143.8,113.9,143.3,113.8,142.1L113.8,142.1z M117.1,138.8
		c-0.4,2-0.3,3.4,0.2,4.1c1.2-0.3,1.8-0.9,1.8-1.9c0.3-0.9,0.1-1.7-0.7-2.6C118.1,138.2,117.6,138.3,117.1,138.8L117.1,138.8z
		 M123.2,137c-1,0.4-1.3,1.2-1,2.5C123.3,138,123.6,137.2,123.2,137L123.2,137z M119,132.4c0.2,2.9-1,4-3.8,3.3
		c-0.4,1.6,5.4,2.5,4.9-3.3c-0.9-2.8-2.4-3.4-4.5-1.7C117.5,130.1,118.6,130.7,119,132.4L119,132.4z M73.9,91.3
		c0,0.9,0.7,2.9,1.9,4.9c0.7,1.4,2.5,3.7,3.6,3.8c14.8-1.6,22.8-3.2,24.2-4.2c0.3-2.2,1.6-10.9,2.4-12.4c0.3-1,1-2.3,2-4.9
		c-3.4,1.9-6.6,3.2-9.7,4.1c-3.9,1.1-10.7,2.5-20.5,4.4C75.9,87.4,74.3,88.9,73.9,91.3z"/>
	<path class="st1" d="M128.3,62.9c0.9-1.8,1.5-2.7,1.8-2.7c5.7-0.3,8,0.5,8.7,3c0.5,1.6,1,5,1.3,10.4c0.6,9.7-9.1,8.7-12,7.6
		C126.8,76,126.9,68.7,128.3,62.9z"/>
	<path class="st0" d="M272.1,12.5C151.6,54.2,54.5,153.8,253.6,163C64.8,127.4,176.7,69.7,272.1,12.5z"/>
</g>
<g>
	<path class="st2" d="M243.9,70.3l-2,9.9h-25.2l-10.2,50.7h-11.2l12.2-60.5H243.9z"/>
	<path class="st2" d="M264.8,86.1c4.3,0,7.3,1.2,9.2,3.7c1.9,2.4,2.8,5.3,2.8,8.6c0,2.4-0.5,5.9-1.4,10.4
		c-1.8,9.4-4.2,15.5-7.1,18.4c-2.9,2.9-6.6,4.3-11.2,4.3c-4.6,0-8-1.6-10-4.8l-4.1,20.5h-10.5l12.1-60.5h10.2l-0.9,4.3
		C256.6,87.7,260.3,86.1,264.8,86.1z M260.6,95.5c-2.9,0-5.1,1.1-6.5,3.2c-1.4,2.1-2.5,5.5-3.4,10c-0.6,3.3-0.9,5.7-0.9,7.1
		c0,4.1,1.8,6.1,5.3,6.1c2.9,0,5-1.1,6.4-3.2c1.4-2.2,2.5-5.5,3.4-10c0.6-3.3,0.9-5.7,0.9-7.1C265.8,97.5,264.1,95.5,260.6,95.5z"/>
	<path class="st2" d="M322.1,86.6L294.5,138c-1.1,2.2-2.4,3.9-3.7,5.2c-2.6,2.6-6.1,3.9-10.5,3.9h-4.1l2-9.5h2.4
		c1.5,0,2.6-0.4,3.5-1.1c0.9-0.7,1.7-1.9,2.6-3.5l2.8-5.3l-6.3-41.1h10.5l3.2,28.6L311,86.6H322.1z"/>
	<path class="st2" d="M340.7,86.1c5,0,8.8,1,11.5,3.1c2.7,2.1,4,5,4,8.6c0,2.5-0.7,4.7-2.1,6.4c-1.4,1.7-3.2,3-5.3,3.9
		c3.2,1.7,4.8,4.5,4.8,8.4c0,4.6-1.7,8.3-5,10.9c-3.3,2.6-8.3,4-14.8,4c-6.7,0-12.1-2.3-16.1-6.8l7-6.6c2.5,3,5.8,4.5,9.8,4.5
		c2.7,0,4.8-0.5,6.2-1.6c1.4-1,2.2-2.5,2.2-4.2c0-2.9-1.9-4.4-5.6-4.4h-5.5l1.4-7.8h5.9c2.3,0,4-0.5,5.1-1.4
		c1.2-0.9,1.7-2.1,1.7-3.6c0-3.1-2.2-4.6-6.7-4.6c-3.7,0-7.2,1.5-10.5,4.5l-4.9-6.5c2.7-2.4,5.4-4.1,7.9-5.2
		C334.3,86.6,337.3,86.1,340.7,86.1z"/>
	<path class="st2" d="M384.9,86.1c4.1,0,7.6,1.2,10.5,3.7c2.9,2.5,4.4,6.1,4.4,10.9c0,2.1-0.3,4.8-0.9,8c-0.9,4.6-2,8.2-3.1,10.8
		c-1.2,2.6-2.8,4.9-4.8,6.8c-3.6,3.4-8.1,5.1-13.6,5.1c-4.1,0-7.7-1.2-10.6-3.7c-2.9-2.5-4.4-6.1-4.4-10.9c0-2.4,0.3-5.1,0.9-8.1
		c0.9-4.6,2-8.2,3.1-10.8c1.2-2.6,2.8-4.8,4.8-6.7C374.8,87.8,379.4,86.1,384.9,86.1z M383.8,95.5c-2.2,0-4,0.7-5.4,2.2
		c-1.9,1.8-3.4,5.5-4.5,11c-0.6,3.1-0.9,5.4-0.9,6.9c0,2,0.5,3.6,1.5,4.7s2.4,1.7,4.1,1.7c2.2,0,4-0.7,5.4-2.2
		c2-1.9,3.5-5.6,4.5-11.1c0.6-3.1,0.9-5.3,0.9-6.8c0-2.1-0.5-3.7-1.5-4.8C386.9,96,385.5,95.5,383.8,95.5z"/>
	<path class="st2" d="M447.5,86.6l-8.8,44.3h-10.5l7-34.9h-13l-7,34.9h-10.5l8.8-44.3H447.5z"/>
	<path class="st2" d="M474.5,86.1c4.7,0,8.5,1.4,11.4,4.3c2.9,2.9,4.3,6.7,4.3,11.5c0,2.7-0.5,6-1.4,10h-26.5
		c-0.2,1.4-0.3,2.4-0.3,3.1c0,2.3,0.6,4.1,1.9,5.4c1.3,1.3,3.2,2,5.7,2c3.9,0,7.4-1.5,10.5-4.5l5.5,7c-4.6,4.3-10.4,6.5-17.3,6.5
		c-4.4,0-8.3-1.3-11.5-3.8c-3.3-2.5-4.9-6.4-4.9-11.8c0-5.2,0.8-9.9,2.3-14.3c1.6-4.4,4.1-8.1,7.6-11
		C465.4,87.5,469.6,86.1,474.5,86.1z M473.9,94.7c-5,0-8.4,3.4-10.2,10.1h16.2c0.2-0.9,0.3-1.9,0.3-3c0-2.3-0.6-4-1.7-5.3
		C477.4,95.4,475.8,94.7,473.9,94.7z"/>
	<path class="st2" d="M523.9,86.1c4.3,0,7.3,1.2,9.2,3.7c1.9,2.4,2.8,5.3,2.8,8.6c0,2.4-0.5,5.9-1.4,10.4
		c-1.8,9.4-4.2,15.5-7.1,18.4c-2.9,2.9-6.6,4.3-11.2,4.3c-4.6,0-8-1.6-10-4.8l-4.1,20.5h-10.5l12.1-60.5h10.2l-0.9,4.3
		C515.7,87.7,519.4,86.1,523.9,86.1z M519.6,95.5c-2.9,0-5.1,1.1-6.5,3.2c-1.4,2.1-2.5,5.5-3.4,10c-0.6,3.3-0.9,5.7-0.9,7.1
		c0,4.1,1.8,6.1,5.3,6.1c2.9,0,5-1.1,6.4-3.2c1.4-2.2,2.5-5.5,3.4-10c0.6-3.3,0.9-5.7,0.9-7.1C524.9,97.5,523.1,95.5,519.6,95.5z"/>
	<path class="st2" d="M564.2,86.1c4.7,0,8.5,1.4,11.4,4.3c2.9,2.9,4.3,6.7,4.3,11.5c0,2.7-0.5,6-1.4,10H552
		c-0.2,1.4-0.3,2.4-0.3,3.1c0,2.3,0.6,4.1,1.9,5.4c1.3,1.3,3.2,2,5.7,2c3.9,0,7.4-1.5,10.5-4.5l5.5,7c-4.6,4.3-10.4,6.5-17.3,6.5
		c-4.4,0-8.3-1.3-11.5-3.8c-3.3-2.5-4.9-6.4-4.9-11.8c0-5.2,0.8-9.9,2.3-14.3c1.6-4.4,4.1-8.1,7.6-11
		C555.1,87.5,559.3,86.1,564.2,86.1z M563.6,94.7c-5,0-8.4,3.4-10.2,10.1h16.2c0.2-0.9,0.3-1.9,0.3-3c0-2.3-0.6-4-1.7-5.3
		C567,95.4,565.5,94.7,563.6,94.7z"/>
	<path class="st2" d="M593.3,86.6h19.9c3.8,0,6.8,0.9,8.9,2.7c2.2,1.8,3.2,4.4,3.2,7.7c0,5.2-2.4,9-7.2,11.4
		c2.8,1.9,4.3,4.5,4.3,7.9c0,4.5-1.5,8-4.4,10.6c-2.9,2.6-6.7,3.9-11.4,3.9h-22.1L593.3,86.6z M606.8,112.3h-8.1l-2.1,10.5h8.1
		c2.3,0,4.1-0.6,5.2-1.7c1.2-1.1,1.7-2.6,1.7-4.4c0-1.2-0.4-2.2-1.1-3.1C609.8,112.8,608.6,112.3,606.8,112.3z M609.9,94.6h-7.6
		l-2,9.8h7.8c2.3,0,3.9-0.6,4.9-1.7c1-1.2,1.5-2.5,1.5-4C614.7,95.9,613.1,94.6,609.9,94.6z"/>
	<path class="st2" d="M653.7,86.1c4.1,0,7.6,1.2,10.5,3.7c2.9,2.5,4.4,6.1,4.4,10.9c0,2.1-0.3,4.8-0.8,8c-0.9,4.6-2,8.2-3.1,10.8
		c-1.2,2.6-2.8,4.9-4.8,6.8c-3.6,3.4-8.1,5.1-13.6,5.1c-4.1,0-7.7-1.2-10.6-3.7c-2.9-2.5-4.4-6.1-4.4-10.9c0-2.4,0.3-5.1,0.9-8.1
		c0.9-4.6,2-8.2,3.1-10.8c1.2-2.6,2.8-4.8,4.8-6.7C643.6,87.8,648.1,86.1,653.7,86.1z M652.6,95.5c-2.2,0-4,0.7-5.4,2.2
		c-1.9,1.8-3.4,5.5-4.5,11c-0.6,3.1-0.9,5.4-0.9,6.9c0,2,0.5,3.6,1.5,4.7c1,1.1,2.4,1.7,4.1,1.7c2.2,0,4-0.7,5.4-2.2
		c2-1.9,3.5-5.6,4.5-11.1c0.6-3.1,0.9-5.3,0.9-6.8c0-2.1-0.5-3.7-1.5-4.8C655.6,96,654.3,95.5,652.6,95.5z"/>
	<path class="st2" d="M694,86.1c5,0,8.8,1,11.5,3.1c2.7,2.1,4,5,4,8.6c0,2.5-0.7,4.7-2.1,6.4c-1.4,1.7-3.2,3-5.3,3.9
		c3.2,1.7,4.8,4.5,4.8,8.4c0,4.6-1.7,8.3-5,10.9c-3.3,2.6-8.3,4-14.8,4c-6.7,0-12.1-2.3-16.1-6.8l7-6.6c2.5,3,5.8,4.5,9.8,4.5
		c2.7,0,4.8-0.5,6.2-1.6c1.4-1,2.2-2.5,2.2-4.2c0-2.9-1.9-4.4-5.6-4.4H685l1.4-7.8h5.9c2.3,0,4-0.5,5.1-1.4c1.2-0.9,1.7-2.1,1.7-3.6
		c0-3.1-2.2-4.6-6.7-4.6c-3.7,0-7.2,1.5-10.5,4.5l-4.9-6.5c2.7-2.4,5.4-4.1,7.9-5.2C687.6,86.6,690.6,86.1,694,86.1z"/>
	<path class="st2" d="M733.3,86.6l-8.8,44.3h-10.5l8.8-44.3H733.3z M759.1,86.6l-19.4,21l11.3,23.3h-12.2l-9.7-23.1l17.6-21.2H759.1
		z"/>
	<path class="st2" d="M801.3,86.6l-8.8,44.3h-10.5l5.2-25.7l-19.4,25.7h-10.5l8.8-44.3h10.5l-5.1,25.7l19.4-25.7H801.3z"/>
</g>
</svg>
