<svg id="Layer_1" data-name="Layer 1" xmlns="http://www.w3.org/2000/svg" viewBox="0 0 311 311"><defs><style>.cls-1{fill:#fff;}</style></defs><title>Монтажная область 1</title><path class="cls-1" d="M155,5A150,150,0,1,0,305,155,150,150,0,0,0,155,5Zm84.75,201.79-81.29,40.29a7.77,7.77,0,0,1-6.91,0l-81.3-40.29a7.78,7.78,0,1,1,6.91-13.94L155,231.43l77.84-38.58a7.78,7.78,0,1,1,6.91,13.94Zm0-29.61-81.29,40.29a7.77,7.77,0,0,1-6.91,0l-81.3-40.29a7.78,7.78,0,1,1,6.91-13.94L155,201.82l77.84-38.58a7.78,7.78,0,1,1,6.91,13.94Zm0-29.61-81.29,40.29a7.73,7.73,0,0,1-6.91,0l-81.3-40.3a7.78,7.78,0,1,1,6.91-13.94L155,172.21l77.84-38.58a7.78,7.78,0,1,1,6.91,13.94Zm0-31.06-81.29,40.28a7.77,7.77,0,0,1-6.91,0l-81.3-40.28a7.78,7.78,0,0,1,0-14l81.3-40.29a7.77,7.77,0,0,1,6.91,0l81.29,40.29a7.78,7.78,0,0,1,0,14Z"/></svg>