<svg fill="#2f344a" id="Capa_1" data-name="Capa 1" xmlns="http://www.w3.org/2000/svg" viewBox="0 0 30.05 30.06">
    <path d="M25.84,26l-3.5-4.34A2,2,0,0,0,21,21l-1.48,0c-1.27.73-3.75,1.81-7.18-4.13s-1.26-7.56,0-8.29l.76-1.26a1.94,1.94,0,0,0,.13-1.51l-2-5.2A1.07,1.07,0,0,0,10.07,0L7.61.47c-4.78,2.76-4.81,11-.09,19.2S19.42,32,24.2,29.2l1.62-1.91A1.05,1.05,0,0,0,25.84,26Z"/>
    <path d="M17.93,6.44a8.9,8.9,0,0,1,6.29,10.89.64.64,0,0,0,1.23.33A10.18,10.18,0,0,0,18.26,5.21a.64.64,0,1,0-.33,1.23Z"/>
    <path d="M17.28,8.89a6.37,6.37,0,0,1,4.49,7.78A.63.63,0,1,0,23,17,7.63,7.63,0,0,0,17.6,7.66a.64.64,0,0,0-.32,1.23Z"/>
    <path d="M16.62,11.35A3.8,3.8,0,0,1,19.31,16a.64.64,0,0,0,1.23.33A5.09,5.09,0,0,0,17,10.12a.64.64,0,0,0-.33,1.23Z"/>
    <path d="M16,13.8a1.27,1.27,0,0,1,.9,1.56.64.64,0,0,0,1.23.33,2.54,2.54,0,0,0-1.8-3.11A.63.63,0,1,0,16,13.8Z"/>
</svg>