<?xml version="1.0" encoding="utf-8"?>
<!-- Generator: Adobe Illustrator 22.1.0, SVG Export Plug-In . SVG Version: 6.00 Build 0)  -->
<svg version="1.1" id="Capa_1" xmlns="http://www.w3.org/2000/svg" xmlns:xlink="http://www.w3.org/1999/xlink" x="0px" y="0px"
	 viewBox="0 0 30.1 30.1" style="enable-background:new 0 0 30.1 30.1;" xml:space="preserve">
<g>
	<g fill="#757575">
		<path d="M25.8,26l-3.5-4.3C22,21.3,21.4,21,21,21l-1.5,0c-1.3,0.7-3.7,1.8-7.2-4.1c-3.4-5.9-1.3-7.6,0-8.3l0.8-1.3
			c0.2-0.4,0.3-1.1,0.1-1.5l-2-5.2C11,0.2,10.5-0.1,10.1,0L7.6,0.5c-4.8,2.8-4.8,11-0.1,19.2c4.7,8.2,11.9,12.3,16.7,9.5l1.6-1.9
			C26.1,26.9,26.1,26.4,25.8,26z"/>
		<path d="M17.9,6.4c4.7,1.3,7.6,6.2,6.3,10.9c-0.1,0.3,0.1,0.7,0.5,0.8c0.3,0.1,0.7-0.1,0.8-0.5c1.5-5.4-1.8-11-7.2-12.4
			c-0.3-0.1-0.7,0.1-0.8,0.4C17.4,6,17.6,6.3,17.9,6.4z"/>
		<path d="M17.3,8.9c3.4,0.9,5.4,4.4,4.5,7.8c-0.1,0.3,0.1,0.7,0.4,0.8c0.3,0.1,0.7-0.1,0.8-0.5c1.1-4.1-1.3-8.2-5.4-9.3
			c-0.3-0.1-0.7,0.1-0.8,0.4C16.7,8.5,16.9,8.8,17.3,8.9z"/>
		<path d="M16.6,11.3c2,0.5,3.2,2.6,2.7,4.7c-0.1,0.3,0.1,0.7,0.4,0.8c0.3,0.1,0.7-0.1,0.8-0.5c0.7-2.7-0.9-5.5-3.6-6.2
			c-0.3-0.1-0.7,0.1-0.8,0.4C16.1,10.9,16.3,11.3,16.6,11.3z"/>
		<path d="M16,13.8c0.7,0.2,1.1,0.9,0.9,1.6c-0.1,0.3,0.1,0.7,0.4,0.8c0.3,0.1,0.7-0.1,0.8-0.4c0.4-1.4-0.4-2.7-1.8-3.1
			c-0.3-0.1-0.7,0.1-0.8,0.4C15.4,13.4,15.6,13.7,16,13.8z"/>
	</g>
</g>
</svg>
