<?xml version="1.0" standalone="no"?>
<!DOCTYPE svg PUBLIC "-//W3C//DTD SVG 20010904//EN"
 "http://www.w3.org/TR/2001/REC-SVG-20010904/DTD/svg10.dtd">
<svg version="1.0" xmlns="http://www.w3.org/2000/svg"
 width="1088.000000pt" height="1088.000000pt" viewBox="0 0 1088.000000 1088.000000"
 preserveAspectRatio="xMidYMid meet">
<metadata>
Created by potrace 1.11, written by Peter Selinger 2001-2013
</metadata>
<g transform="translate(0.000000,1088.000000) scale(0.100000,-0.100000)"
fill="#000000" stroke="none">
<path d="M4658 8595 c-2 -2 -79 -6 -173 -10 -93 -3 -186 -8 -205 -10 -19 -2
-71 -7 -115 -10 -76 -6 -133 -11 -200 -19 -16 -2 -59 -7 -95 -11 -36 -3 -72
-8 -80 -10 -8 -2 -40 -7 -70 -10 -55 -6 -76 -9 -140 -20 -19 -4 -47 -8 -62
-10 -15 -2 -35 -6 -45 -9 -10 -3 -34 -7 -53 -10 -19 -3 -50 -10 -67 -15 -18
-5 -33 -8 -33 -6 0 3 -12 0 -27 -6 -36 -14 -64 -18 -138 -23 -114 -7 -215 -49
-373 -153 -140 -93 -361 -326 -636 -673 -58 -74 -114 -145 -124 -157 -9 -13
-24 -32 -33 -42 -16 -21 -20 -26 -107 -144 -29 -40 -59 -79 -67 -88 -7 -9 -64
-88 -126 -175 -63 -88 -116 -161 -119 -164 -16 -15 -110 -152 -110 -159 0 -5
-4 -11 -8 -13 -8 -3 -224 -308 -247 -348 -25 -43 -62 -70 -49 -35 4 8 3 30 0
49 -7 37 -37 56 -89 56 -18 0 -38 5 -45 12 -9 9 -12 77 -12 245 0 128 -4 233
-9 233 -5 0 -8 -110 -7 -246 2 -242 1 -247 -20 -260 -54 -36 -70 -143 -51
-331 8 -71 8 -72 -20 -90 -15 -10 -39 -28 -53 -40 -14 -13 -28 -23 -32 -23 -3
0 -13 -6 -20 -13 -7 -7 -29 -24 -48 -37 -50 -35 -141 -112 -195 -165 -86 -85
-233 -347 -268 -480 -9 -33 -18 -92 -21 -131 -3 -39 -13 -92 -21 -119 -9 -26
-19 -57 -22 -69 -8 -31 -10 -308 -2 -331 5 -15 -4 -31 -33 -63 -64 -70 -107
-182 -111 -287 -1 -43 18 -151 44 -251 17 -65 32 -126 33 -134 4 -30 39 -135
47 -146 5 -6 6 -13 3 -16 -6 -7 86 -109 184 -203 65 -63 122 -101 175 -119 9
-3 20 -13 24 -23 17 -44 114 -140 192 -190 147 -94 350 -157 496 -154 59 1
139 12 190 25 6 1 26 6 45 10 35 7 72 21 100 37 8 5 29 15 45 23 17 8 55 37
85 66 l55 51 75 -5 c41 -4 107 -9 145 -12 39 -2 97 -7 130 -9 33 -2 60 -5 60
-5 0 -1 29 -3 65 -5 36 -3 85 -6 110 -9 152 -16 293 -20 690 -19 245 0 495 3
555 6 l111 6 24 -52 c14 -29 28 -56 33 -62 4 -5 21 -31 38 -57 83 -128 282
-289 404 -326 127 -38 292 -48 395 -23 25 7 54 14 64 16 11 3 53 20 94 40 41
19 78 35 84 35 16 0 111 65 154 106 72 68 154 212 209 364 48 134 62 208 70
375 2 39 4 78 4 88 1 9 8 17 17 17 9 0 30 7 47 15 18 8 82 32 144 53 111 39
111 39 121 18 6 -12 25 -52 43 -91 18 -38 35 -72 38 -75 3 -3 12 -17 20 -32 8
-15 21 -36 30 -45 9 -10 27 -34 41 -53 36 -52 195 -209 275 -271 39 -30 72
-57 73 -61 2 -5 8 -8 14 -8 6 0 25 -10 42 -23 110 -83 490 -275 616 -312 14
-4 30 -11 35 -14 6 -4 30 -14 55 -21 25 -7 50 -17 55 -21 6 -3 57 -21 115 -39
58 -17 112 -34 120 -37 8 -4 20 -7 25 -8 6 -2 42 -12 80 -23 161 -48 597 -149
676 -157 9 -1 29 -5 45 -10 16 -4 38 -8 49 -10 49 -9 102 -17 120 -20 61 -9
98 -16 104 -19 4 -3 36 -8 71 -11 36 -4 67 -8 70 -10 3 -1 30 -6 61 -9 31 -4
65 -8 75 -10 19 -4 78 -11 164 -21 25 -3 63 -8 85 -10 22 -3 60 -8 85 -10 25
-3 63 -7 85 -10 22 -2 67 -7 100 -10 33 -3 80 -8 105 -11 25 -3 70 -7 100 -10
76 -6 175 -13 240 -19 30 -3 97 -7 148 -10 99 -6 158 -10 317 -20 98 -7 125
-2 55 8 -19 3 -46 8 -60 11 -14 4 -36 8 -50 11 -14 2 -79 16 -145 30 -66 14
-131 27 -145 29 -14 2 -47 9 -75 15 -27 7 -61 14 -75 16 -14 2 -25 4 -25 5 0
1 -9 3 -20 5 -11 1 -63 12 -115 25 -52 12 -106 24 -120 27 -14 3 -29 6 -35 7
-5 2 -21 6 -35 9 -111 28 -249 60 -265 62 -11 2 -32 8 -47 14 -16 6 -28 8 -28
6 0 -2 -12 0 -27 6 -16 6 -39 13 -53 15 -14 3 -38 9 -55 14 -16 5 -55 16 -85
24 -30 8 -87 24 -126 35 -39 11 -80 22 -90 24 -55 10 -643 200 -729 237 -65
27 -183 70 -193 70 -7 0 -12 5 -12 12 0 6 -3 9 -6 6 -5 -5 -88 28 -233 94
-664 299 -1057 653 -1156 1043 -5 17 -10 37 -12 45 -2 8 -6 65 -8 125 -3 122
10 213 50 333 25 72 111 261 125 272 3 3 19 27 34 54 26 44 172 242 200 272 6
6 40 44 76 84 103 117 275 284 410 400 35 30 71 62 80 70 9 8 38 33 65 55 28
22 55 44 61 50 6 5 28 24 49 40 21 17 44 36 52 43 7 7 13 11 13 7 0 -3 10 4
23 15 19 18 151 119 337 256 25 19 50 38 57 44 7 5 16 10 22 10 5 0 11 3 13 8
2 4 21 19 43 34 22 15 60 42 85 59 49 35 365 248 392 264 9 6 37 25 63 43 25
17 47 32 49 32 2 0 47 28 99 63 151 98 259 166 447 282 96 59 186 115 200 124
14 9 96 59 182 111 87 52 170 103 185 112 16 10 35 21 43 25 8 4 44 25 80 48
36 23 70 44 75 46 8 3 259 153 335 200 34 20 527 313 559 331 19 11 59 35 88
54 29 19 56 34 59 34 3 0 20 10 36 22 17 11 53 34 82 49 28 16 47 29 42 29 -8
0 -128 -41 -166 -57 -8 -3 -19 -7 -25 -9 -15 -3 -175 -64 -210 -79 -16 -7 -41
-16 -55 -20 -23 -7 -129 -49 -395 -157 -155 -63 -353 -150 -500 -219 -38 -17
-72 -33 -75 -34 -31 -11 -318 -147 -430 -205 -195 -100 -445 -231 -495 -262
-16 -9 -44 -24 -61 -32 -17 -8 -35 -19 -38 -25 -4 -6 -16 -11 -26 -11 -10 0
-20 -4 -22 -8 -4 -9 -216 -132 -228 -132 -5 0 -10 -3 -12 -7 -3 -9 -190 -123
-200 -123 -3 0 -4 62 -2 138 4 178 4 172 16 172 16 0 1 108 -21 144 -20 32
-28 62 -36 134 -12 99 -22 184 -30 242 -3 19 -7 59 -10 88 -3 29 -7 63 -9 75
-7 41 -16 102 -21 147 -14 125 -38 193 -81 228 -26 21 -64 35 -157 57 -67 16
-127 30 -134 31 -6 1 -53 12 -105 23 -51 12 -103 23 -116 26 -13 2 -31 6 -40
9 -9 3 -28 8 -42 10 -14 3 -47 11 -75 16 -27 6 -59 13 -70 16 -11 2 -31 6 -45
9 -14 4 -34 8 -45 10 -11 3 -51 12 -90 20 -38 9 -81 18 -95 20 -14 3 -36 8
-50 11 -14 3 -38 8 -55 11 -33 6 -39 7 -75 16 -14 4 -36 9 -50 11 -14 2 -81
16 -150 29 -69 14 -147 28 -175 32 -27 3 -63 8 -80 11 -16 2 -59 6 -95 9 -36
3 -81 7 -100 9 -19 2 -80 7 -135 11 -55 3 -129 9 -165 11 -66 6 -917 13 -922
9z m-430 -317 c-13 -11 -118 -145 -170 -219 -47 -64 -151 -205 -159 -213 -6
-6 -9 -4 -9 5 0 12 159 242 179 259 3 3 29 32 56 65 82 98 98 115 109 115 5 0
3 -6 -6 -12z m-1118 -82 c0 -3 -6 -11 -13 -18 -21 -21 -168 -217 -231 -305
-31 -46 -59 -83 -62 -83 -8 0 12 33 46 74 17 22 41 57 52 78 12 21 25 38 30
38 4 0 8 5 8 11 0 11 79 115 134 177 28 31 36 37 36 28z m3195 -310 c43 -4
164 -15 230 -22 22 -2 74 -6 115 -10 115 -10 131 -11 195 -18 33 -4 85 -9 115
-12 30 -3 75 -7 100 -10 25 -2 68 -6 95 -10 81 -11 87 -12 145 -18 30 -4 62
-9 70 -11 8 -2 33 -7 55 -10 91 -13 111 -24 35 -19 -41 3 -88 8 -105 10 -16 2
-52 7 -80 9 -27 3 -63 7 -80 10 -16 3 -55 7 -85 10 -30 3 -68 8 -85 10 -16 2
-61 7 -100 10 -38 4 -72 8 -75 10 -3 2 -48 6 -100 10 -52 4 -106 8 -120 11
-14 2 -63 6 -110 10 -47 3 -101 8 -120 9 -104 10 -304 18 -442 19 -146 1 -184
5 -120 14 15 2 28 5 30 7 5 4 379 -3 437 -9z m-1620 -350 c222 -9 324 -14 350
-20 11 -3 23 -5 27 -5 17 -2 76 -63 82 -85 4 -18 -50 -137 -226 -492 -128
-258 -232 -472 -233 -475 0 -12 -40 -84 -48 -87 -4 -2 -5 -7 -3 -10 2 -4 -35
-83 -83 -177 l-86 -170 -68 -37 c-53 -29 -144 -67 -177 -73 -7 -2 -90 -16
-120 -21 -14 -2 -35 -6 -48 -8 -71 -15 -200 -20 -477 -19 -384 1 -1096 16
-1285 27 -128 8 -412 17 -655 21 -244 5 -287 7 -425 20 -83 8 -89 10 -110 28
-31 26 -24 48 43 133 34 44 76 100 92 124 17 25 36 51 42 60 11 13 64 88 184
260 17 25 76 110 130 190 55 80 106 153 114 163 8 9 15 22 15 27 0 6 5 10 10
10 6 0 10 5 10 10 0 6 4 16 10 23 34 42 62 80 101 138 25 36 51 72 57 80 13
14 109 145 140 188 40 57 110 121 133 122 13 1 38 2 54 4 168 13 344 21 649
29 98 3 181 7 183 10 3 3 15 1 28 -4 13 -5 25 -6 28 -3 4 3 70 7 149 8 238 5
592 16 595 18 4 5 649 -1 818 -7z m1165 -37 c0 -3 -17 -6 -37 -7 -29 0 -33 2
-18 8 23 9 55 9 55 -1z m-113 -15 c-3 -3 -12 -4 -19 -1 -8 3 -5 6 6 6 11 1 17
-2 13 -5z m-100 -10 c-3 -3 -12 -4 -19 -1 -8 3 -5 6 6 6 11 1 17 -2 13 -5z
m-117 -30 c-41 -14 -77 -29 -80 -32 -3 -4 -11 -8 -17 -9 -22 -5 -87 -64 -128
-118 -31 -40 -153 -284 -289 -578 -20 -44 -36 -80 -36 -82 0 -3 -25 -55 -55
-117 -30 -62 -55 -104 -55 -93 0 18 17 59 107 260 36 80 279 560 306 605 61
99 112 139 222 171 92 27 110 22 25 -7z m197 -176 c11 -13 24 -38 28 -57 4
-18 8 -174 10 -345 1 -171 4 -315 5 -321 1 -5 1 -14 0 -20 -1 -5 -1 -32 0 -60
0 -27 1 -54 1 -60 -6 -223 -16 -350 -31 -406 -13 -49 -100 -159 -126 -159 -3
0 -4 8 -3 18 1 9 0 19 -1 22 -1 3 -3 25 -6 50 -3 43 -21 151 -31 195 -3 11 -7
33 -10 48 -8 41 -63 92 -115 106 -51 14 -206 21 -236 10 -22 -8 -70 -83 -77
-119 -2 -12 -6 -29 -9 -38 -6 -19 -15 -79 -25 -165 -18 -147 4 -492 33 -517
21 -16 70 -23 176 -24 122 0 171 17 233 81 40 40 51 42 16 2 -11 -13 -24 -29
-27 -34 -13 -20 -97 -63 -142 -72 -50 -10 -179 -8 -225 3 -16 4 -49 20 -72 37
l-42 30 -68 -23 c-37 -12 -77 -26 -88 -30 -21 -8 -101 -35 -215 -70 -36 -11
-82 -23 -102 -27 -36 -5 -38 -4 -38 21 0 23 26 114 47 166 3 8 7 22 9 31 2 8
29 82 59 165 119 317 210 542 272 671 21 43 38 80 39 83 0 3 23 52 51 110 82
172 117 245 118 250 3 10 67 147 92 195 41 79 87 147 121 182 35 35 126 73
185 78 21 1 40 5 43 7 2 3 32 6 67 7 54 2 66 -1 84 -21z m2080 8 c0 -6 3 -49
7 -96 3 -47 8 -137 12 -200 3 -63 7 -141 9 -172 2 -40 -1 -61 -11 -69 -8 -6
-14 -10 -15 -8 -2 7 -8 104 -13 209 -6 111 -17 282 -20 315 -1 11 -1 23 0 26
5 10 31 6 31 -5z m-974 -1257 c-10 -10 -36 -20 -58 -23 -22 -3 -60 -8 -85 -12
-25 -3 -56 -8 -70 -9 -23 -3 -49 -6 -140 -19 -19 -3 -57 -8 -85 -11 -27 -3
-63 -8 -80 -10 -16 -2 -63 -7 -103 -10 -40 -3 -76 -6 -80 -6 -4 -1 -19 -1 -34
0 -43 2 -24 30 20 30 20 0 55 3 77 5 22 3 71 7 109 11 39 3 72 8 76 10 3 2 37
6 75 10 39 4 81 9 95 11 14 3 45 7 70 9 25 3 57 7 72 11 15 3 48 7 74 9 26 3
48 6 50 8 2 2 11 4 20 4 13 0 12 -3 -3 -18z m-5435 -185 c494 -12 532 -14 532
-35 0 -5 -8 -12 -17 -16 -10 -3 -29 -16 -43 -28 -31 -27 -74 -41 -120 -39 -19
1 -172 5 -340 8 -168 4 -309 11 -313 15 -20 20 100 120 126 104 4 -2 83 -6
175 -9z m4228 -58 c-2 -38 -12 -39 -12 -1 0 18 3 32 7 30 3 -3 5 -15 5 -29z
m-2206 -1 c83 -3 80 -2 74 -20 -4 -8 -15 -15 -25 -15 -10 0 -19 -5 -19 -12 0
-6 -3 -9 -6 -5 -4 3 -25 -3 -47 -14 -22 -12 -61 -26 -86 -33 -49 -12 -64 -12
-406 -1 -121 4 -274 8 -340 10 -66 2 -130 4 -142 4 -13 1 -23 6 -23 12 0 12
25 39 36 39 4 0 15 6 23 14 39 33 73 35 486 30 226 -4 439 -7 475 -9z m2528
-190 c4 -46 -38 -68 -154 -81 l-51 -6 2 31 c1 18 6 36 12 42 17 17 126 49 158
46 25 -2 30 -7 33 -32z m-1639 -72 c-11 -27 -24 -57 -29 -68 -10 -25 -22 -59
-20 -63 0 -1 -6 -15 -14 -30 -12 -23 -43 -154 -52 -217 -1 -11 -5 -36 -9 -55
-7 -42 -12 -70 -20 -130 -4 -25 -9 -52 -10 -60 -2 -8 -4 -17 -4 -20 -1 -7 -49
-26 -86 -35 -16 -4 -38 -9 -47 -11 -10 -2 -28 -6 -40 -9 -13 -3 -34 -8 -48
-10 -14 -2 -36 -7 -50 -10 -14 -3 -68 -12 -120 -20 -52 -8 -113 -17 -135 -21
-22 -3 -51 -7 -65 -9 -61 -7 -137 -17 -164 -21 -31 -5 -105 -13 -181 -19 -49
-4 -51 -3 -101 49 -53 54 -130 193 -140 251 -2 17 -6 35 -8 41 -3 6 6 34 19
62 24 52 76 97 126 108 28 7 250 52 294 60 17 3 50 10 75 15 25 6 52 12 60 14
26 5 95 18 100 20 13 3 67 15 90 19 182 34 395 108 544 188 28 15 52 27 53 28
1 0 -7 -21 -18 -47z m-3749 -124 c96 -76 101 -83 95 -136 -6 -61 -15 -105 -25
-118 -4 -5 -10 -22 -14 -37 -3 -15 -12 -33 -19 -40 -7 -7 -18 -24 -24 -38 -24
-48 -100 -145 -123 -157 -20 -10 -31 -8 -70 13 -86 45 -90 60 -61 219 28 152
67 256 138 369 l25 39 18 -40 c10 -22 37 -55 60 -74z m447 -149 c27 0 55 1 63
1 163 3 869 -23 975 -36 22 -3 96 -7 165 -10 124 -5 139 -7 256 -25 109 -18
156 -55 193 -155 13 -33 26 -69 31 -80 4 -11 18 -56 30 -100 12 -44 25 -87 28
-95 3 -8 6 -24 7 -36 1 -12 5 -29 8 -38 11 -27 21 -108 21 -161 0 -72 -39
-148 -110 -218 -93 -91 -109 -95 -309 -92 -93 2 -222 6 -285 10 -63 3 -153 8
-200 10 -47 2 -130 7 -185 10 -55 4 -129 8 -165 10 -70 4 -196 12 -299 20 -63
5 -105 9 -198 21 -63 8 -95 11 -168 18 -33 3 -71 8 -85 11 -14 2 -42 7 -63 10
-97 13 -142 53 -209 180 -33 64 -36 76 -33 140 4 87 14 122 76 260 24 54 138
219 183 265 67 69 72 72 149 76 27 1 51 5 54 8 3 3 10 3 14 0 5 -3 30 -5 56
-4z m4839 -147 c18 -24 17 -54 -3 -82 -15 -23 -17 -23 -30 -6 -16 23 -17 77
-1 93 16 16 18 15 34 -5z m-1016 -158 c19 -4 46 -15 60 -24 28 -18 101 -94 95
-99 -2 -2 -25 9 -52 25 -42 24 -58 28 -129 28 -72 0 -87 -4 -148 -35 -67 -34
-197 -150 -256 -228 -14 -18 -32 -41 -40 -52 -8 -10 -49 -72 -90 -139 -67
-107 -100 -143 -100 -110 0 16 63 143 72 147 5 2 8 8 8 14 0 14 78 151 138
243 70 107 123 158 203 195 95 44 159 53 239 35z m754 -945 c3 -30 8 -76 11
-101 7 -53 26 -41 -170 -110 -130 -46 -152 -48 -144 -16 0 1 -6 17 -14 35 -10
25 -11 45 -3 89 9 53 12 57 54 76 25 10 50 20 56 22 6 1 18 4 26 7 41 15 175
56 177 54 1 -1 4 -26 7 -56z m-819 -75 c108 -15 179 -75 252 -215 65 -122 75
-230 39 -400 -2 -8 -6 -22 -9 -30 -3 -8 -11 -33 -18 -55 -40 -131 -109 -223
-223 -297 -137 -90 -322 -61 -457 72 -82 81 -125 184 -130 313 -1 23 3 53 9
67 10 24 11 23 13 -12 3 -73 5 -75 63 -46 45 21 46 23 46 68 0 44 -2 47 -35
60 -41 16 -42 21 -13 89 16 39 18 55 10 63 -7 7 -12 16 -12 20 0 18 22 6 56
-32 42 -46 104 -71 129 -50 40 33 0 105 -73 129 -45 15 -51 16 -61 2 -17 -25
-2 36 20 80 41 81 158 163 253 176 22 3 42 6 44 8 3 2 17 1 97 -10z m-3973
-447 c20 -10 44 -18 53 -18 8 0 15 -4 15 -9 0 -28 -142 34 -155 68 -4 9 3 8
22 -5 16 -10 45 -26 65 -36z m1043 -102 c28 -3 91 -7 140 -10 110 -8 153 -14
159 -25 6 -8 -81 -7 -194 4 -36 3 -101 8 -145 11 -44 3 -100 7 -125 9 -25 1
-65 4 -90 5 -34 1 -40 3 -25 10 19 7 170 5 280 -4z"/>
<path d="M885 5190 c-81 -6 -95 -13 -152 -72 -46 -48 -88 -119 -147 -248 -21
-47 -45 -101 -54 -120 -9 -19 -17 -68 -18 -108 -3 -67 0 -79 34 -144 38 -72
89 -127 120 -129 9 0 26 -3 37 -5 11 -2 38 -7 60 -9 22 -3 56 -7 75 -10 19 -3
58 -7 85 -10 28 -3 61 -8 75 -10 14 -3 55 -7 90 -11 36 -3 83 -7 105 -9 22 -3
83 -7 135 -10 110 -6 222 -13 335 -21 44 -3 109 -7 145 -9 36 -2 124 -6 195
-10 190 -10 525 -14 525 -6 0 4 13 14 28 23 43 25 96 79 127 128 30 48 37 109
21 200 -4 25 -9 54 -11 65 -2 11 -4 20 -5 20 -1 0 -3 7 -5 16 -16 83 -105 346
-124 367 -19 21 -74 48 -116 57 -38 8 -112 14 -250 20 -60 3 -126 8 -145 10
-100 12 -346 23 -655 31 -397 9 -436 9 -510 4z"/>
<path d="M4535 3864 c-33 -13 -61 -24 -62 -24 -10 0 1 -28 25 -61 21 -31 32
-38 52 -35 56 9 60 15 60 76 0 33 -4 61 -8 64 -4 2 -35 -6 -67 -20z"/>
<path d="M4738 3840 c-21 -24 -35 -80 -37 -147 -2 -48 0 -53 19 -53 44 0 63
42 60 129 -1 31 -2 64 -1 74 0 23 -21 22 -41 -3z"/>
<path d="M4900 3711 c-25 -48 -4 -101 40 -101 23 0 30 4 30 20 0 17 -46 100
-56 100 -2 0 -8 -9 -14 -19z"/>
<path d="M4656 3495 c-29 -12 -29 -12 22 -19 44 -6 52 -10 66 -40 41 -88 -9
-185 -89 -170 -16 3 -35 2 -43 -1 -28 -11 27 -38 75 -37 51 0 73 17 99 70 31
65 19 139 -32 191 -17 19 -61 21 -98 6z"/>
<path d="M4895 3455 c-28 -16 -41 -31 -43 -48 -3 -22 2 -27 34 -36 55 -15 94
7 92 53 -2 49 -31 60 -83 31z"/>
<path d="M4414 3243 c-47 -27 -69 -46 -88 -74 -17 -27 -13 -58 8 -60 81 -8
170 70 143 128 -12 28 -23 29 -63 6z"/>
<path d="M4901 3204 c-16 -18 -23 -74 -9 -74 9 0 38 60 38 80 0 14 -13 12 -29
-6z"/>
<path d="M4695 3156 c-15 -11 -19 -27 -19 -84 -1 -39 2 -73 6 -77 12 -13 57 5
69 26 20 38 19 97 -3 124 -23 29 -27 30 -53 11z"/>
<path d="M4488 3008 c-29 -30 -30 -32 -12 -45 11 -8 30 -13 44 -11 21 3 26 9
28 39 4 51 -20 58 -60 17z"/>
<path d="M990 7552 c0 -18 4 -32 9 -32 5 0 7 12 5 27 -7 39 -14 42 -14 5z"/>
<path d="M993 7310 c1 -110 4 -200 7 -200 4 0 6 90 6 200 -1 110 -4 200 -8
200 -3 0 -6 -90 -5 -200z"/>
<path d="M990 7090 c0 -5 5 -10 10 -10 6 0 10 5 10 10 0 6 -4 10 -10 10 -5 0
-10 -4 -10 -10z"/>
<path d="M993 7025 c-1 -25 2 -45 7 -45 5 0 9 20 8 45 0 25 -4 45 -7 45 -4 0
-7 -20 -8 -45z"/>
<path d="M994 6920 c-1 -27 3 -50 8 -50 4 0 8 23 8 50 0 28 -4 50 -8 50 -5 0
-8 -22 -8 -50z"/>
</g>
</svg>
